<svg viewBox="0 0 781.9 382.6" xmlns="http://www.w3.org/2000/svg"><defs><clipPath id="a"><path d="M0 841.89h595.28V0H0z" style="fill:none;clip-rule:nonzero"/></clipPath><clipPath id="c" style="clip-path:url(#a)"><path style="clip-rule:nonzero" d="M152.582 52.328h176.379v109.401H152.582z"/></clipPath><clipPath id="d" style="clip-path:url(#a)"><path style="clip-rule:nonzero" d="M173.989 127.477H276.15v24.73H173.989z"/></clipPath><clipPath id="e" style="clip-path:url(#a)"><path style="clip-rule:nonzero" d="M178.793 81.702h99.216v66.191h-99.216z"/></clipPath><clipPath id="f" style="clip-path:url(#b)"><path style="clip-rule:nonzero" d="M175.981 35.141h324.043V813.06H175.981z"/></clipPath><clipPath id="b"><path d="M0 841.89h595.28V0H0z" style="fill:none;clip-rule:nonzero"/></clipPath><clipPath id="g"><path d="M0 841.89h595.28V0H0z" style="fill:none;clip-rule:nonzero"/></clipPath><clipPath id="h"><path d="M0 841.89h595.28V0H0z" style="fill:none;clip-rule:nonzero"/></clipPath><clipPath id="i"><path d="M0 841.89h595.28V0H0z" style="fill:none;clip-rule:nonzero"/></clipPath><clipPath id="j"><path d="M0 841.89h595.28V0H0z" style="fill:none;clip-rule:nonzero"/></clipPath></defs><g transform="translate(-34.927 -121.04)"><g style="clip-path:url(#a)" transform="matrix(0 1 1 0 0 0)"><path d="M0 0s-1.781-8.325 2.167-14.905c0 0-.452 9.909 17.529 7.88 0 0-3.93 9.81 8.349 28.087 0 0 38.015 21.785 38.746-9.796 0 0 2.194-4.814 13.451-3.502 0 0 13.306 29.09-16.962 51.021 0 0-3.069 22.078 3.073 41.962 0 0-6.142-3.655-16.23 0 0 0-3.948-2.633-2.047-16.229 0 0-28.071.585-41.523-17.399 0 0-9.942 7.31-17.253 11.111 0 0-4.694-1.109-7.026-5.452S0 0 0 0" style="fill:#48d3cf;fill-opacity:1" transform="translate(290.278 86.83)"/></g><g style="clip-path:url(#a)" transform="matrix(0 1 1 0 0 0)"><path d="M0 0s22.784 31.997 58.325 8.755" style="fill:#48d3cf;fill-opacity:1" transform="translate(193.046 152.509)"/></g><g style="clip-path:url(#c)" transform="matrix(0 1 1 0 0 0)"><path d="M0 0c15.142 3.299 66.672 11.404 73.041 6.579 6.352-4.824 13.668-14.772 14.387-22.071 0 0 3.509 5.263 6.439 7.456 0 0 3.509 2.193 9.071-.597 0 0 2.193 9.212 9.352 10.247 7.158 1.018 12.72 1.018 17.106-9.071 4.387-10.088-9.21-25.738-21.493-16.369 0 0-7.457-8.457-6-22.792 0 0-8.334-4.403-9.79-17.721 0 0-2.194-17.826-23.107-23.388 0 0-1.755 17.844-45.32 8.037 0 0-29.686-9.493-19.738-21.634 0 0-48.039-1.106-50.004 47.144C-48.021-5.931-15.142-3.299 0 0" style="fill:#eda024;fill-opacity:1" transform="translate(198.723 153.654)"/></g><g style="clip-path:url(#d)" transform="matrix(0 1 1 0 0 0)"><path d="M0 0s28.95 12.948 77.199 11.615c0 0 17.686.106 19.967-13.369 0 0-15.44 6.824-47.302 4.088C26.3.334-7.966 3.948 3.369-13.019c0 0-16.318 2.492-3.369 13.019" style="fill:#d68a1a;fill-opacity:1" transform="translate(178.984 140.495)"/></g><g style="clip-path:url(#e)" transform="matrix(0 1 1 0 0 0)"><path d="M0 0c9.229 5.702 83.34 15.352 90.586 0 0 0 5.492-18.423 1.527-28.512C88.183-38.6 76.778-45.828 73.69-47.811c-3.053-1.983-60.952-10.527-68.848-10.088 0 0-17.334 4.825-7.474 17.335C7.246-28.072 7.246-28.512 7.685-26.528c.439 1.965 2.193 5.473-1.316 9.422-3.509 3.947-7.246 4.158-8.334 5.035C-3.053-11.194-9.194-5.702 0 0" style="fill:#ffe9ca;fill-opacity:1" transform="translate(184.458 139.618)"/></g><g style="clip-path:url(#a)" transform="matrix(0 1 1 0 0 0)"><path d="M0 0s-24.747-5.272-29.681-17.005c0 0-2.302-22.92 37.722-24.638 0 0 29.608-1.17 29.608 30.779 0 0 .512 17.005-37.649 10.864" style="fill:#48d3cf;fill-opacity:1" transform="translate(230.16 76.575)"/></g><g style="clip-path:url(#a)" transform="matrix(0 1 1 0 0 0)"><path d="M0 0s1.313-8.918 13.814-4.387c0 0 9.579 11.99-3.873 15.937 0 0-11.257.438-9.941-11.55" style="fill:#48d3cf;fill-opacity:1" transform="translate(305.312 139.475)"/></g><g style="clip-path:url(#a)" transform="matrix(0 1 1 0 0 0)"><path d="M0 0s4.092-9.064 16.813-12.72c0 0-1.022-6.142 9.066-5.119 3.319.337 4.997 2.526 5.417 5.061.855 5.172-3.529 11.786-9.923 7.076 0 0-3.254 8.582-3.844 13.582 0 0-15.628 4.695-17.529-7.88" style="fill:#333;fill-opacity:1" transform="translate(292.446 71.925)"/></g><g style="clip-path:url(#a)" transform="matrix(0 1 1 0 0 0)"><path d="M0 0s-1.85 1.28-4.555 1.977c0 0-5.19 7.714-8.699 9.469 0 0-5.557-2.486-5.849-4.24 0 0-1.169 3.07 0 4.825 0 0-6.871 1.17-7.018 4.095 0 0 3.508-.731 6.433 0 0 0-4.387 1.462-4.24 4.239 0 0 3.363-.729 5.117-.729 0 0-.585 1.461.731 3.508 0 0 2.486-3.07 4.094-3.657 0 0 2.486 1.317 3.802-1.314 0 0 16.062-12.151 17.399-12.867" style="fill:#333;fill-opacity:1" transform="translate(272.363 159.755)"/></g><g style="clip-path:url(#a)" transform="matrix(0 1 1 0 0 0)"><path d="M0 0s-4.239-10.382-11.696-14.182c0 0-3.803-1.315 0-5.702 3.8-4.387 7.164-9.505 12.281-9.65 5.116-.147-1.17 9.063-2.193 10.088-1.024 1.023 7.004 1.689 15.2 16.272 0 0-2.482-2.968-13.592 3.174" style="fill:#333;fill-opacity:1" transform="translate(357.07 98.096)"/></g><g style="clip-path:url(#a)" transform="matrix(0 1 1 0 0 0)"><path d="M0 0s.585 9.064 8.48 16.668c0 0-4.678 2.338-10.82 2.046 0 0 6.142 11.697 28.95 7.018 0 0-9.65-23.179-10.381-25.732C15.499-2.555 1.461-2.339 0 0" style="fill:#333;fill-opacity:1" transform="translate(340.401 187.577)"/></g><g style="clip-path:url(#a)" transform="matrix(0 1 1 0 0 0)"><path d="M0 0s27.708 5.483 28.95 7.019c0 0-20.761 6.579-28.95-7.019" style="fill:#666;fill-opacity:1" transform="translate(338.062 206.291)"/></g><g style="clip-path:url(#a)" transform="matrix(0 1 1 0 0 0)"><path d="M0 0s2.779-5.054 1.792-6.261c-.986-1.207-3.322 0-3.322 0" style="fill:#333;fill-opacity:1" transform="translate(323.695 62.102)"/></g><g style="clip-path:url(#a)" transform="matrix(0 1 1 0 0 0)"><path d="M0 0c1.936 0 3.508-15.709 3.508-35.091 0-19.38-1.572-35.09-3.508-35.09-1.939 0-3.511 15.71-3.511 35.09C-3.511-15.709-1.939 0 0 0" style="fill:#c1c1c1;fill-opacity:1" transform="translate(393.624 191.378)"/></g><g style="clip-path:url(#a)" transform="matrix(0 1 1 0 0 0)"><path d="M0 0c2.138-.426 4.025.001 4.214.952.189.948-1.393 2.065-3.531 2.489-2.139.425-4.024-.001-4.214-.951C-3.719 1.539-2.138.424 0 0" style="fill:#000;fill-opacity:1" transform="translate(203.426 99.19)"/></g><g style="clip-path:url(#a)" transform="matrix(0 1 1 0 0 0)"><path d="M0 0c2.138-.424 4-.123 4.159.672.157.796-1.449 1.786-3.587 2.212-2.138.423-4 .123-4.158-.673C-3.744 1.416-2.138.426 0 0" style="fill:#000;fill-opacity:1" transform="translate(213.405 125.067)"/></g><g style="clip-path:url(#a)" transform="matrix(0 1 1 0 0 0)"><path d="M0 0s40.135 21.053 14.475 35.418c0 0 29.937-9.539 34.761-19.738C54.062 5.481 21.493-5.703 0 0" style="fill:#000;fill-opacity:1" transform="translate(214.514 94.332)"/></g><g style="clip-path:url(#a)" transform="matrix(0 1 1 0 0 0)"><path d="M0 0h1.919S.713 5.265 4.551 6.36C4.551 6.36-.11 9.924 0 0" style="fill:#000;fill-opacity:1" transform="translate(212.102 88.136)"/></g><g style="clip-path:url(#a)" transform="matrix(0 1 1 0 0 0)"><path d="M0 0s-.475.658-.292 1.098c0 0 2.486-.036 3.728.915C3.436 2.013 1.792.184 0 0" style="fill:#000;fill-opacity:1" transform="translate(227.49 129.019)"/></g><g style="clip-path:url(#a)" transform="matrix(0 1 1 0 0 0)"><path d="M0 0s14.128 8.992 17.637 22.479c0 0 5.373-2.63 8.006-5.81l-2.743-.988 1.134-5.702-7.165-3.949V2.741l-4.048-3.38z" style="fill:#fff;fill-opacity:1" transform="translate(222.208 95.757)"/></g><g style="clip-path:url(#a)" transform="matrix(0 1 1 0 0 0)"><path d="m0 0 4.277 3.4v2.852l5.921 3.508v6.141l4.508 1.426v1.864s10.845-2.85 12.05-3.838C27.963 14.366 28.84.221 0 0" style="fill:#fff;fill-opacity:1" transform="translate(236.665 94.66)"/></g><g style="clip-path:url(#f)" transform="matrix(0 1 1 0 0 0)"><path d="M0 0s30.759 1.735 40.189 19.707c0 0 7.47 12.966-6.572 18.979 0 0 15.626.529 17.46-11.753 0 0 2.089-43.776-51.077-26.933" style="fill:#515151;fill-opacity:1" transform="translate(216.652 38.997)"/></g><g style="clip-path:url(#f)" transform="matrix(0 1 1 0 0 0)"><path d="M0 0s34.286 3.15 35.602 31.881c1.315 28.73-1.995 44.221-9.292 49.815 0 0 22.726-11.232 17.434-73.729 0 0-3.694-14.686-22.257-19.949" style="fill:#515151;fill-opacity:1" transform="translate(246.242 77.912)"/></g><g style="clip-path:url(#f)" transform="matrix(0 1 1 0 0 0)"><path d="M0 0s19.014-3.628 24.498.539c0 0 .438-7.018 2.192-7.237C28.445-6.919 10.593-5.8 0 0" style="fill:#515151;fill-opacity:1" transform="translate(175.981 59.031)"/></g><g style="clip-path:url(#f)" transform="matrix(0 1 1 0 0 0)"><path d="M0 0s-9.001 7.22-3.957 11.065c0 0 7.896 14.155 10.747 16.787 2.851 2.632 3.29 12.183-.877 15.304 0 0-8.033 5.86-11.405 6.155 0 0-2.756 4.479 2.632 7.053 0 0 39.139 10.169 52.931 9.81 0 0-33.977-.648-53.396-7.532 0 0-12.255-5.146-3.483-12.814 8.773-7.668-.439.081-.439.081s15.36-4.066 9.362-16.362L-6.003 19.19s-6.402-5.639-3.968-11.757c0 0 1.133-4.51 9.971-7.433" style="fill:#515151;fill-opacity:1" transform="translate(189.302 81.72)"/></g><g style="clip-path:url(#f)" transform="matrix(0 1 1 0 0 0)"><path d="M0 0s-1.974 3.18-4.276 4.058c0 0 .675 6.468-7.393 4.276 0 0-22.544 18.861-6.205 38.49 0 0 39.545 56.086 16.319 67.026 0 0 11.936 2.022 14.422 1.657 0 0 3.034-5.3 9.393-3.654 0 0 .762 28.64 12.062 43.324 0 0 6.508 1.634 7.202 2.292 0 0-10.053-24.454-10.38-25.879-.331-1.425-5.921-17.616-3.073-41.816 0 0 28.5-17.975 17.103-50.693 0 0-4.692-7.768-7.706-10.368 0 0-5.009-4.478-7.696-5.465 0 0 5.061-6.408 4.34-9.235 0 0-.008-2.116-3.956-.964 0 0-3.675 1.206-6.744 5.154l-3.728 4.387s-3.838 4.112.877 5.703c0 0 7.074 4.331 11.021 13.926 0 0 2.338 30.302-38.746 10.126 0 0-11.696-17.695-8.188-28.366 0 0 1.224-7.162 3.683-13.597 0 0 7.028 5.702 9.877-4.121C-1.792 6.261.95 1.098 0 0" style="fill:#515151;fill-opacity:1" transform="translate(325.487 55.84)"/></g><g style="clip-path:url(#g)" transform="matrix(0 1 1 0 0 0)"><path d="M0 0c2.104-.57 2.524-5.803.937-11.689-1.588-5.886-4.581-10.2-6.686-9.631-2.105.567-2.524 5.799-.937 11.687C-5.099-3.747-2.105.566 0 0" style="fill:#fff;fill-opacity:1" transform="translate(164.826 132.639)"/></g><g style="clip-path:url(#g)" transform="matrix(0 1 1 0 0 0)"><path d="M0 0c1.114-2.588-1.543-6.222-5.938-8.115-4.394-1.894-8.859-1.328-9.975 1.261-1.114 2.586 1.544 6.22 5.938 8.112C-5.582 3.151-1.116 2.589 0 0" style="fill:#fff;fill-opacity:1" transform="translate(219.938 64.134)"/></g><g style="clip-path:url(#g)" transform="matrix(0 1 1 0 0 0)"><path d="M0 0c.464-1.079-.642-2.592-2.473-3.381-1.827-.787-3.687-.553-4.152.525-.463 1.078.643 2.589 2.473 3.378C-2.323 1.312-.464 1.076 0 0" style="fill:#fff;fill-opacity:1" transform="translate(208.97 161.037)"/></g></g><g transform="translate(-34.927 -121.04)"><g style="clip-path:url(#h)" transform="matrix(0 1 1 0 0 0)"><path d="M0 0c1.938 0 3.51-15.711 3.51-35.091 0-19.38-1.572-35.091-3.51-35.091-1.937 0-3.509 15.711-3.509 35.091C-3.509-15.711-1.937 0 0 0" style="fill:#c1c1c1;fill-opacity:1" transform="translate(500.115 404.114)"/></g><g style="clip-path:url(#h)" transform="matrix(0 1 1 0 0 0)"><path d="m0 0-27.017-2.554s0-9.43-7.676-8.334c-7.676 1.097-19.738 7.896-5.702 18.423 0 0 8.114 4.405 12.062-4.048 0 0 27.497 6.461 28.333 6.461" style="fill:#666;fill-opacity:1" transform="translate(289.123 345.478)"/></g><g style="clip-path:url(#h)" transform="matrix(0 1 1 0 0 0)"><path d="M0 0s-40.316 6.67-42.51 65.027c0 0-2.196 30.196 17.656 46.678 0 0 34.797 20.907 41.003-27.505C20.525 50.061 0 0 0 0" style="fill:#48d3cf;fill-opacity:1" transform="translate(327.534 291.386)"/></g><g style="clip-path:url(#h)" transform="matrix(0 1 1 0 0 0)"><path d="M0 0s-14.015 10.25-14.893 20.776c0 0-4.134 25.663 3.436 37.54C-3.999 70.013 2.142 71.914 2.142 71.914s8.116 2.669 10.454-6.397l-1.739-2.141s9.341 7.26 31.273-4.878l6.287 3.437s1.645-12.063 13.268-18.971c0 0-13.706-28.62-57.571-23.065L9.871 7.802z" style="fill:#48d3cf;fill-opacity:1" transform="translate(428.398 328.8)"/></g><g style="clip-path:url(#h)" transform="matrix(0 1 1 0 0 0)"><path d="M0 0s11.799-4.611 12.674-6.511c.878-1.901 4.715 1.336 8.701 15.373 0 0-3.188 2.531-5.907 3.091C12.748 12.518 0 0 0 0" style="fill:#48d3cf;fill-opacity:1" transform="translate(468.746 353.582)"/></g><g style="clip-path:url(#h)" transform="matrix(0 1 1 0 0 0)"><path d="M0 0s-17.545 22.81 4.095 45.618c0 0-.726 58.338-4.679 63.893 0 0-13.744 7.458-24.27 2.194 0 0 18.421 23.394 90.944 11.696 0 0 16.373-11.112 21.052-33.044 0 0 19.774 9.579 26.939 11.588 0 0-2.814-9.249.841-29.717 0 0-8.625 1.023-13.304 9.21-4.68 8.189.29.586.29.586s-17.399-13.598-14.18-25.003c0 0-1.024-27.633-9.357-32.312C69.656 19.818 13.161-6.287 0 0" style="fill:#eda024;fill-opacity:1" transform="translate(327.534 291.386)"/></g><g style="clip-path:url(#h)" transform="matrix(0 1 1 0 0 0)"><path d="m0 0-4.605 5.044L0 10.748z" style="fill:#48d3cf;fill-opacity:1" transform="translate(436.754 378.089)"/></g><g style="clip-path:url(#h)" transform="matrix(0 1 1 0 0 0)"><path d="m0 0-3.363 1.524s48.541 25.04 60.603-19.81C71.06-69.665 0 0 0 0" style="fill:#d68a1a;fill-opacity:1" transform="translate(330.313 399.372)"/></g><g style="clip-path:url(#h)" transform="matrix(0 1 1 0 0 0)"><path d="M0 0s-49.126-26.977-65.429 26.684c0 0-5.262 28.948 34.214 40.938 0 0 26.788 8.403 43.862-23.393C26.977 17.544 0 0 0 0" style="fill:#ffe9ca;fill-opacity:1" transform="translate(377.466 338.1)"/></g><g style="clip-path:url(#h)" transform="matrix(0 1 1 0 0 0)"><path d="M0 0s-3.217 8.187 9.796 7.895c0 0 6.289-9.212 9.943-9.651 0 0 4.387 1.608 5.558 1.461l1.899-1.461-1.315-1.17s3.216-4.241 3.362-6.14l-2.047-1.462h-2.194s-8.917-9.943-12.864 0C12.138-10.528.296-1.242 0 0" style="fill:#333;fill-opacity:1" transform="translate(427.98 329.402)"/></g><g style="clip-path:url(#h)" transform="matrix(0 1 1 0 0 0)"><path d="M0 0s-2.413 7.238-10.527 6.58c0 0 6.687 9.979 14.584 10.636 0 0 9.978.878 7.457-5.591 0 0 .656-.11.877-.769 0 0-2.083-4.167-4.825-1.974C7.566 8.882.548 2.632 0 0" style="fill:#333;fill-opacity:1" transform="translate(441.067 394.135)"/></g><g style="clip-path:url(#h)" transform="matrix(0 1 1 0 0 0)"><path d="M0 0s-16.668 5.264-13.268 18.971l7.567 2.742s-5.813 5.194-4.168 9.286c0 0 9.98 3.764 19.3-8.629 0 0 4.168-6.141-9.431-22.37" style="fill:#333;fill-opacity:1" transform="translate(490.083 371.765)"/></g><g style="clip-path:url(#h)" transform="matrix(0 1 1 0 0 0)"><path d="M0 0s7.346 7.019 8.662 15.022c0 0 3.988-1.944 5.744-5.137.062-.114.121-.229.177-.345 1.646-3.399-.056.116-.056.116s3.894 3.502 6.964 2.186c0 0 3.729-12.719-10.197-19.079C11.294-7.237 0-2.961 0 0" style="fill:#333;fill-opacity:1" transform="translate(480.545 347.97)"/></g><g style="clip-path:url(#h)" transform="matrix(0 1 1 0 0 0)"><path d="M0 0s21.45-20.016 19.626-9.405c0 0-6.138 12.731-19.626 9.405" style="fill:#666;fill-opacity:1" transform="translate(480.214 402.764)"/></g><g style="clip-path:url(#h)" transform="matrix(0 1 1 0 0 0)"><path d="M0 0c1.696 0 3.071-1.341 3.071-2.994 0-1.653-1.375-2.993-3.071-2.993-1.694 0-3.071 1.34-3.071 2.993C-3.071-1.341-1.694 0 0 0" style="fill:#000;fill-opacity:1" transform="translate(348.296 343.291)"/></g><g style="clip-path:url(#h)" transform="matrix(0 1 1 0 0 0)"><path d="M0 0c1.409 0 2.555-.719 2.555-1.604 0-.884-1.146-1.604-2.555-1.604-1.411 0-2.558.72-2.558 1.604C-2.558-.719-1.411 0 0 0" style="fill:#000;fill-opacity:1" transform="translate(355.392 398.576)"/></g><g style="clip-path:url(#h)" transform="matrix(0 1 1 0 0 0)"><path d="M0 0s15.748 32.787 13.445 41.999c0 0 18.642-10.308 19.85-19.738 0 0-3.534-19.63-33.295-22.261" style="fill:#000;fill-opacity:1" transform="translate(352.834 347.312)"/></g><g style="clip-path:url(#h)" transform="matrix(0 1 1 0 0 0)"><path d="M0 0h6.907l4.497 8.005L8.883 0l2.521-.548s16.23 7.02 17.765 15.024c0 0 1.097 3.07-.986 5.044-2.083 1.974-8.993 10.527-11.515 12.282 0 0-2.741 1.095-5.702.548C10.966 32.35 4.825 9.102 0 0" style="fill:#fff;fill-opacity:1" transform="translate(356.52 352.136)"/></g><g style="clip-path:url(#h)" transform="matrix(0 1 1 0 0 0)"><path d="M0 0s-22.74-15.171-14.698-36.81c0 0-3.418 22.072 18.805 35.085" style="fill:#34ada7;fill-opacity:1" transform="translate(326.95 400.897)"/></g><g style="clip-path:url(#f)" transform="matrix(0 1 1 0 0 0)"><path d="M0 0s-16.065 11.961-4.113 37.415c0 0 59.656-4.922 59.363 34.521 0 0 1.061 23.72-18.862 38.379 0 0 .916 15.574 15.611 13.086 0 0 17.287-12.023 21.052-33.044 0 0 1.931-26.006.318-28.657 0 0 .644-26.463-8.068-36.258C65.301 25.442 32.739 7.164 0 0" style="fill:#515151;fill-opacity:1" transform="translate(341.625 291.386)"/></g><g style="clip-path:url(#f)" transform="matrix(0 1 1 0 0 0)"><path d="M0 0s-18.252 6.599-23.297 25.46c0 0 56.509 1.5 64.992 34.311 0 0 10.483-.553 4.73 4.58 0 0 6.887-4.364 6.267.822 0 0 1.592-8.209-9.866-21.169 0 0-10.05-16.631-20.724-18.386 0 0-13.817-7.823-36.7-4.678 0 0 5.334-15.5 14.598-20.94" style="fill:#515151;fill-opacity:1" transform="translate(447.257 327.76)"/></g><g style="clip-path:url(#f)" transform="matrix(0 1 1 0 0 0)"><path d="M0 0s10.96 2.755 14.527 9.656c0 0-.475 2.749-9.695 7.568 0 0-4.832-7.172-16.019-11.815" style="fill:#515151;fill-opacity:1" transform="translate(480.545 347.97)"/></g><g style="clip-path:url(#f)" transform="matrix(0 1 1 0 0 0)"><path d="m0 0-16.588-6.67S-1.885 17.159 11.04 18.643c0 0 3.784-.345 2.285-5.06-1.497-4.717-.621.108-.621.108s-3.51-1.592-3.363-2.55C9.341 11.141.895 2.683 0 0" style="fill:#515151;fill-opacity:1" transform="translate(439.256 392.177)"/></g><g style="clip-path:url(#f)" transform="matrix(0 1 1 0 0 0)"><path d="M0 0s-30.487 17.496-21.494 45.318c0 0 1.084 19.011 33.481 28.493 0 0-35.18-4.65-39.084-35.505 0 0-.144-6.778-.031-7.135.114-.356 4.614-24 27.128-31.171" style="fill:#515151;fill-opacity:1" transform="translate(339.38 332.916)"/></g><g style="clip-path:url(#f)" transform="matrix(0 1 1 0 0 0)"><path d="M0 0s11.482 7.157 2.709 17.994c0 0 6.336.614 9.285-5.272 0 0-1.828-2.46 0-3.191l24.692 3.708V8.89L13.09 6.754S13.958-5.878 0 0" style="fill:#515151;fill-opacity:1" transform="translate(248.796 336.244)"/></g><g style="clip-path:url(#g)" transform="matrix(0 1 1 0 0 0)"><path d="M0 0c3.45-1.623 9.145 3.224 12.718 10.821 3.575 7.598 3.676 15.076.228 16.698C9.497 29.142 3.803 24.296.229 16.696-3.346 9.099-3.449 1.621 0 0" style="fill:#fff;fill-opacity:1" transform="translate(296.207 373.773)"/></g><g style="clip-path:url(#g)" transform="matrix(0 1 1 0 0 0)"><path d="M0 0c-1.128.737-4.073-1.77-6.572-5.601-2.498-3.829-3.61-7.535-2.479-8.271 1.128-.736 4.073 1.772 6.572 5.601C.02-4.44 1.133-.736 0 0" style="fill:#fff;fill-opacity:1" transform="translate(401.656 334.696)"/></g><g style="clip-path:url(#g)" transform="matrix(0 1 1 0 0 0)"><path d="M0 0c1.25 1.039 1.583 2.701.741 3.715-.84 1.013-2.536.992-3.785-.044-1.252-1.038-1.583-2.7-.742-3.714C-2.945-1.056-1.25-1.036 0 0" style="fill:#fff;fill-opacity:1" transform="translate(250.318 346.227)"/></g></g><g transform="translate(-34.927 -121.04)"><g style="clip-path:url(#i)" transform="matrix(0 1 1 0 0 0)"><path d="M0 0c6.155.165 12.115-35.766 13.309-80.246 1.192-44.49-2.836-80.684-8.992-80.848-6.157-.165-12.114 35.76-13.306 80.248C-10.181-36.364-6.156-.165 0 0" style="fill:#c1c1c1;fill-opacity:1" transform="translate(324.459 651.68)"/></g><g style="clip-path:url(#i)" transform="matrix(0 1 1 0 0 0)"><path d="M0 0s2.628 15.938 4.164 24.417c0 0 8.994-5.556 10.31-7.456 0 0 5.556 4.532 7.31-2.486C23.539 7.457 27.632-13.891 6.724 0z" style="fill:#333;fill-opacity:1" transform="translate(314.962 515.526)"/></g><g style="clip-path:url(#i)" transform="matrix(0 1 1 0 0 0)"><path d="M0 0s-9.066 11.548-4.973 19.152l7.313 1.609s4.092 4.531 7.163 4.093c0 0 6.502-8.334 2.154-21.199 0 0-2.154-1.463-6.686-.585 0 0-1.41-1.754-4.971-3.07" style="fill:#333;fill-opacity:1" transform="translate(314.962 600.915)"/></g><g style="clip-path:url(#i)" transform="matrix(0 1 1 0 0 0)"><path d="M0 0s-39.038 13.816-46.056 62.505c-7.018 48.688 31.801 68.646 34.323 69.523 2.522.877 57.352-2.412 52.964-29.169C36.845 76.103 29.389-12.721 0 0" style="fill:#333;fill-opacity:1" transform="translate(207.057 496.666)"/></g><g style="clip-path:url(#i)" transform="matrix(0 1 1 0 0 0)"><path d="m0 0-19.517 5.834-3.217-2.916s-3.948-1.031-4.094 2.916c0 0-10.674-1.317-11.843 2.777 0 0-.585 2.634 7.896 1.902 0 0-9.944 2.924-6.58 6.432 0 0 2.047 1.463 9.504-1.607 0 0 5.264 12.134 14.329 1.023 0 0 21.346-.66 23.978-2.67C13.088 11.682 4.845-1.449 0 0" style="fill:#333;fill-opacity:1" transform="translate(193.531 627.832)"/></g><g style="clip-path:url(#i)" transform="matrix(0 1 1 0 0 0)"><path d="M0 0s-6.434-.731-15.646 1.754c0 0-10.526-19.883-21.054-18.86 0 0-30.119-4.387-30.704-3.948 0 0 6.726 15.059 2.779 85.242 0 0 10.673 3.802 8.334 19.299-2.34 15.498-11.113 11.844-11.113 11.844s-6.287 26.807-23.832 27.978c0 0 31.8 7.403 67.548-19.791l18.715 1.022S-9.267 99.241 0 85.388c0 0-8.444-5.228-15.134-4.46 0 0 8.444-15.462 5.813-45.617L4.164 24.417" style="fill:#48d3cf;fill-opacity:1" transform="translate(314.962 515.526)"/></g><g style="clip-path:url(#i)" transform="matrix(0 1 1 0 0 0)"><path d="M0 0s-17.325 1.974-19.299 18.094c0 0 11.369-3.178 4.569 82.574 0 0 9.686 4.751 8.48 21.2-1.207 16.449-14.344 15.569-14.125 15.13.22-.439-2.543 23.323-21.624 24.2 0 0-3.18.219-6.908 0 0 0-7.128 2.96-13.926 2.741 0 0-8.116-4.057-8.664-12.83 0 0 16.449-1.206 21.932-19.847 0 0 6.689.877 9.869-3.949 0 0 15.609 2.889 15.901-8.223.273-10.401-5.044-11.625-12.612-10.418 0 0-2.192-6.58-5.372-8.444 0 0 7.566-87.398-17.985-81.147 0 0 6.361-6.031 16.229-7.457 0 0 17.619-39.184 43.535-11.624" style="fill:#eda024;fill-opacity:1" transform="translate(266.82 477.584)"/></g><g style="clip-path:url(#i)" transform="matrix(0 1 1 0 0 0)"><path d="M0 0s6.178 8.7 6.617 11.185c0 0 6.287-9.43 7.603-5.592 0 0 1.754 3.108-3.363 10.126 0 0 6.288-2.193 5.995 3.217 0 0-.878 2.777-5.995 2.777 0 0-20.982 11.33-30.156-3.619 0 0-2.377-15.828 19.299-18.094" style="fill:#333;fill-opacity:1" transform="translate(266.82 477.584)"/></g><g style="clip-path:url(#i)" transform="matrix(0 1 1 0 0 0)"><path d="M0 0c2.463 0 4.46-1.899 4.46-4.241 0-2.342-1.997-4.241-4.46-4.241s-4.459 1.899-4.459 4.241C-4.459-1.899-2.463 0 0 0" style="fill:#48d3cf;fill-opacity:1" transform="translate(232.718 599.744)"/></g><g style="clip-path:url(#i)" transform="matrix(0 1 1 0 0 0)"><path d="m0 0-14.255.803s-5.264-2.557-5.483-2.557c-.22 0-4.022 1.168-2.998 5.189 0 0 13.598 4.826 14.402 8.408 0 0 1.242 6.582 6.945.951C4.312 7.164 3.965.363 0 .293" style="fill:#eda024;fill-opacity:1" transform="translate(178.474 522.034)"/></g><g style="clip-path:url(#i)" transform="matrix(0 1 1 0 0 0)"><path d="M0 0s-5.776 3.947-9.066 4.167l-14.475.951s-2.045 1.533 1.609 5.19c0 0 15.206-.95 18.057 1.024 0 0 6.287 8.115 10.235-.657C10.307 1.901 2.047.51 0 0" style="fill:#eda024;fill-opacity:1" transform="translate(163.999 572.403)"/></g><g style="clip-path:url(#i)" transform="matrix(0 1 1 0 0 0)"><path d="M0 0c2.147.95 4.927-.628 6.209-3.526 1.283-2.895.583-6.016-1.564-6.967-2.146-.949-4.928.627-6.21 3.524C-2.847-4.073-2.145-.951 0 0" style="fill:#eda024;fill-opacity:1" transform="translate(141.607 521.806)"/></g><g style="clip-path:url(#i)" transform="matrix(0 1 1 0 0 0)"><path d="M0 0c-.325 2.603 2.257 5.068 5.769 5.505 3.508.44 6.62-1.313 6.947-3.913.323-2.601-2.258-5.07-5.769-5.509C3.438-4.354.326-2.599 0 0" style="fill:#eda024;fill-opacity:1" transform="translate(121.067 578.295)"/></g><g style="clip-path:url(#i)" transform="matrix(0 1 1 0 0 0)"><path d="M0 0s-15.9-.523-22.699 33.36c0 0-4.387 28.511 0 38.49 0 0 9.43 8.773 18.751-3.399 0 0 5.373-27.291 7.895-61.841 0 0 .878-4.989-3.947-6.61" style="fill:#ffe9ca;fill-opacity:1" transform="translate(205.523 522.082)"/></g><g style="clip-path:url(#i)" transform="matrix(0 1 1 0 0 0)"><path d="M0 0c1.278-.38 1.842-2.265 1.264-4.21-.579-1.942-2.083-3.212-3.36-2.832-1.279.38-1.843 2.265-1.264 4.21C-2.781-.89-1.278.38 0 0" style="fill:#000;fill-opacity:1" transform="translate(198.017 538.512)"/></g><g style="clip-path:url(#i)" transform="matrix(0 1 1 0 0 0)"><path d="M0 0c1.954-.672 3.21-2.166 2.806-3.34-.404-1.175-2.313-1.581-4.267-.91-1.955.672-3.209 2.167-2.806 3.341C-3.864.266-1.954.672 0 0" style="fill:#000;fill-opacity:1" transform="translate(190.525 590.938)"/></g><g style="clip-path:url(#i)" transform="matrix(0 1 1 0 0 0)"><path d="M0 0v1.315L3.141 1.1s.568 8.841-3.819 9.938c0 0-1.023-.075-1.169-.878l-1.462.073s.55 4.02 4.332 1.901c0 0 5.756-4.823 3.124-12.573 0 0-2.3-.658-4.147.439" style="fill:#000;fill-opacity:1" transform="translate(193.407 553.032)"/></g><g style="clip-path:url(#f)" transform="matrix(0 1 1 0 0 0)"><path d="M0 0s20.061 7.063 29.164 25.517c0 0 7.036-13.04 8.325-12.152l-6.68 6.479S20.291-6.028 0 0" style="fill:#515151;fill-opacity:1" transform="translate(242.262 468.925)"/></g><g style="clip-path:url(#f)" transform="matrix(0 1 1 0 0 0)"><path d="M0 0s32.788 90.252-6.852 133.877c0 0 18.478-3.967 37.12-18.222 0 0-.658-7.896 6.141-14.255 0 0 18.857-.219 21.71 3.289 0 0 8.33-2.851 8.991 7.677 0 0 .207-10.552-1.498-11.185-1.705-.635-4.202-.878-6.614-.439 0 0-12.061-8.992-20.396-7.676 0 0 8.553-14.695 6.032-45.618 0 0-8.663-14.475-4.277-22.809l22.005-5.687 1.007-.259S75.273 7.422 76 22.048c0 0 4.37-14.722-5.22-14.509 0 0-7.834 1.967-9.807 5.037 0 0-15.133-1.754-23.03 1.755 0 0-8.631-17.934-17.664-19.047 0 0-3.384 1.683-3.828.625 0 0-10.003 5.52-16.451 4.091" style="fill:#515151;fill-opacity:1" transform="translate(261.007 503.389)"/></g><g style="clip-path:url(#f)" transform="matrix(0 1 1 0 0 0)"><path d="M0 0s-9.005 26.296-6.519 51.374c0 0-1.483 10.682 11.978 9.618 0 0-4.368 3.47-12.412-1.649 0 0-2.759-7.56-1.809-19.739 0 0-.217-22.771 8.762-39.604" style="fill:#515151;fill-opacity:1" transform="translate(189.744 534.99)"/></g><g style="clip-path:url(#f)" transform="matrix(0 1 1 0 0 0)"><path d="M0 0s-8.588-5.737-10.344-11.585c0 0-6.288 2.336-4.46 8.186 0 0 7.017 5.628 14.804 3.399" style="fill:#515151;fill-opacity:1" transform="translate(247.522 495.678)"/></g><g style="clip-path:url(#g)" transform="matrix(0 1 1 0 0 0)"><path d="M0 0c1.445-.817 3.73.492 5.103 2.919 1.372 2.428 1.313 5.062-.133 5.878-1.447.817-3.73-.491-5.102-2.92C-1.504 3.449-1.446.817 0 0" style="fill:#fff;fill-opacity:1" transform="translate(168.928 592.592)"/></g></g><g transform="translate(-34.927 -121.04)"><g style="clip-path:url(#j)" transform="matrix(0 1 1 0 0 0)"><path d="M0 0c4.003.106 7.842-21.632 8.569-48.558C9.3-75.489 6.642-97.404 2.64-97.512c-4.005-.108-7.841 21.63-8.57 48.56C-6.658-22.026-4.001-.108 0 0" style="fill:#c1c1c1;fill-opacity:1" transform="translate(469.019 803.588)"/></g><g style="clip-path:url(#j)" transform="matrix(0 1 1 0 0 0)"><path d="M0 0s-47.381 8.275-56.269 48.574c-7.469 33.87-4.887 60.693 34.676 71.709C17.971 131.302 0 0 0 0" style="fill:#48d3cf;fill-opacity:1" transform="translate(335.799 695.393)"/></g><g style="clip-path:url(#j)" transform="matrix(0 1 1 0 0 0)"><path d="M0 0s-9.602 11.115-6.614 24.626C-3.632 38.137.815 48.633 2.462 48.945c1.648.312-4.856 10.08-4.856 10.08l-3.242 6.389s-33.83-9.683-36.819-13.055c0 0-4.515-.042-8.62.024-2.182.038-4.249.106-5.463.228l.232 2.281s15.953-7.888 7.717 12.346c0 0-15.824 23.646-25.974-15.591 0 0-25.844 39.358-62.232 32.686 0 0-26.781-25.721 21.099-120.955 0 0 34.615-7.918 48.38 36.538 0 0 7.169-33.646 24.468-22.468 0 0 2.962 16.161-4.614 18.252-7.576 2.089-.684.51-.684.51l-2.544-1.913-.531 7.808s6.41-3.44 11.051-4.058c0 0 25.462-15.831 35.176-17.897" style="fill:#eda024;fill-opacity:1" transform="translate(456.172 731.69)"/></g><g style="clip-path:url(#j)" transform="matrix(0 1 1 0 0 0)"><path d="M0 0s2.761 1.202 1.745 4.385c0 0-8.985 10.121-15.12 18.354 0 0-10.451-.634-14.43-2.648 0 0-5.759-.62 9.53-17.226C-18.275 2.865-4.597-.437 0 0" style="fill:#333;fill-opacity:1" transform="translate(469.638 709.299)"/></g><g style="clip-path:url(#j)" transform="matrix(0 1 1 0 0 0)"><path d="M0 0s-11.221 1.304-14.08 1.36c-2.858.056-2.227 3.189-1.543 4.557.683 1.365 2.348 6.051 6.34 9.741 3.991 3.692 18.571 2.945 19.512 2.413 0 0 1.324-1.118.281-5.093C9.464 9 .271.524 0 0" style="fill:#333;fill-opacity:1" transform="translate(458.493 780.993)"/></g><g style="clip-path:url(#j)" transform="matrix(0 1 1 0 0 0)"><path d="M0 0s4.226 2.68 4.189 12.963c0 0 6.372-3.993 5.532-.532 0 0-2.04 9.304-11.34 10.348 0 0-2.381-2.989-3.77-4.043 0 0-4.083-10.326-3.077-15.126C-8.466 3.61-1.603.155 0 0" style="fill:#333;fill-opacity:1" transform="translate(413.523 709.282)"/></g><g style="clip-path:url(#j)" transform="matrix(0 1 1 0 0 0)"><path d="m0 0-6.551 11.182s1.613 3.183 8.07 4.562c0 0 3.703-3.046 3.644-8.298 0 0 1.477 4.961 1.299 6.153 0 0 3.681 1.81 4.137-5.834 0 0-.967-18.954-10.599-7.765" style="fill:#333;fill-opacity:1" transform="translate(404.257 785.265)"/></g><g style="clip-path:url(#j)" transform="matrix(0 1 1 0 0 0)"><path d="m0 0-1.323 3.257L8.479 7.21S4.729 1.611 0 0" style="fill:#d68a1a;fill-opacity:1" transform="translate(326.288 729.217)"/></g><g style="clip-path:url(#j)" transform="matrix(0 1 1 0 0 0)"><path d="M0 0s-44.895 91.813-19.922 121.151c0 0-5.217.483-7.368-.831 0 0-20.608-33.662 22.613-119.995z" style="fill:#333;fill-opacity:1" transform="translate(340.476 695.068)"/></g><g style="clip-path:url(#j)" transform="matrix(0 1 1 0 0 0)"><path d="m0 0 .899-2.43S-24.717-3.483-21.29 29.786" style="fill:#34ada7;fill-opacity:1" transform="translate(320.065 731.599)"/></g><g style="clip-path:url(#j)" transform="matrix(0 1 1 0 0 0)"><path d="M0 0c1.688-.163 2.93-1.597 2.776-3.202-.155-1.607-1.65-2.777-3.338-2.615-1.687.163-2.929 1.598-2.776 3.204C-3.182-1.006-1.688.163 0 0" style="fill:#48d3cf;fill-opacity:1" transform="translate(352.288 728.487)"/></g><g style="clip-path:url(#j)" transform="matrix(0 1 1 0 0 0)"><path d="M0 0c1.686-.162 2.93-1.595 2.774-3.202C2.62-4.809 1.126-5.98-.563-5.817c-1.688.163-2.931 1.599-2.775 3.206C-3.184-1.006-1.688.165 0 0" style="fill:#48d3cf;fill-opacity:1" transform="translate(352.124 764.418)"/></g><g style="clip-path:url(#j)" transform="matrix(0 1 1 0 0 0)"><path d="M0 0c1.688-.165 2.929-1.597 2.773-3.204-.155-1.605-1.649-2.777-3.336-2.614-1.688.162-2.93 1.598-2.775 3.206C-3.183-1.007-1.688.163 0 0" style="fill:#48d3cf;fill-opacity:1" transform="translate(333.531 793.977)"/></g><g style="clip-path:url(#j)" transform="matrix(0 1 1 0 0 0)"><path d="M0 0s-32.828-20.517-35.975 24.477c0 0-.397 23.25 27.486 16.884 0 0 21.699-15.609 8.489-41.361" style="fill:#ffe9ca;fill-opacity:1" transform="translate(334.768 736.428)"/></g><g style="clip-path:url(#j)" transform="matrix(0 1 1 0 0 0)"><path d="M0 0c1.167-.394 1.938-1.231 1.723-1.867-.217-.64-1.336-.84-2.504-.446-1.165.395-1.939 1.23-1.722 1.87C-2.286.195-1.168.395 0 0" style="fill:#000;fill-opacity:1" transform="translate(308.308 745.078)"/></g><g style="clip-path:url(#j)" transform="matrix(0 1 1 0 0 0)"><path d="M0 0c1.09.572 2.229.554 2.54-.042.314-.597-.314-1.548-1.406-2.119-1.089-.572-2.227-.553-2.539.045C-1.72-1.521-1.091-.573 0 0" style="fill:#000;fill-opacity:1" transform="translate(304.852 765.146)"/></g><g style="clip-path:url(#j)" transform="matrix(0 1 1 0 0 0)"><path d="M0 0s7.569-3.006 6.798 9.552C6.027 22.111 1.451 34.306-4.176 30.663c0 0 8.708 3.71 10.164-21.143C5.988 9.52 7.297-.485 0 0" style="fill:#000;fill-opacity:1" transform="translate(314.024 739.9)"/></g><g style="clip-path:url(#j)" transform="matrix(0 1 1 0 0 0)"><path d="M0 0s1.992 1.24-7.548 8.551c0 0 .847 4.215 5.485 7.732 0 0 1.907 2.68-1.29 3.21 0 0-15.087-.526-21.069-6.558 0 0-2.564-3.76 9.381-8.969C-3.095-1.242.184-2.661 0 0" style="fill:#48d3cf;fill-opacity:1" transform="translate(415.525 745.593)"/></g><g style="clip-path:url(#f)" transform="matrix(0 1 1 0 0 0)"><path d="M0 0s-47.543 28.668-27.596 107.629c0 0 14.928-3.893 35.421-29.722 0 0 15.347-20.61 7.247-51.732C15.072 26.175 5.604 1.729 0 0" style="fill:#515151;fill-opacity:1" transform="translate(373.783 705.43)"/></g><g style="clip-path:url(#f)" transform="matrix(0 1 1 0 0 0)"><path d="M0 0s-31.549 21.64-29.57 38.893c1.982 17.252 8.311 39.251 27.954 48.575 0 0 1.295-1.498-.023-5.885l-10.087-12.187s-19.739-29.702-2.631-49.22L1.045 2.087S1.044-.74 0 0" style="fill:#515151;fill-opacity:1" transform="translate(470.338 711.597)"/></g><g style="clip-path:url(#f)" transform="matrix(0 1 1 0 0 0)"><path d="M0 0c.344-.58-1.847 39.846-1.847 39.846S-16.668 28.143 0 0" style="fill:#515151;fill-opacity:1" transform="translate(444.137 732.061)"/></g><g style="clip-path:url(#f)" transform="matrix(0 1 1 0 0 0)"><path d="M0 0s-30.239 20.734-8.457 46.003c0 0-8.588-1.302-11.606-15.211 0 0 .516-18.553 8.136-25.461C-11.927 5.331-8.831.444 0 0" style="fill:#515151;fill-opacity:1" transform="translate(318.522 731.777)"/></g><g style="clip-path:url(#g)" transform="matrix(0 1 1 0 0 0)"><path d="M0 0c3.904-2.204 10.074 1.33 13.78 7.887 3.705 6.56 3.546 13.669-.359 15.874-3.903 2.206-10.072-1.327-13.778-7.888C-4.063 9.314-3.903 2.207 0 0" style="fill:#fff;fill-opacity:1" transform="translate(284.74 768.953)"/></g><g style="clip-path:url(#g)" transform="matrix(0 1 1 0 0 0)"><path d="M0 0c1.515-.854 3.904.515 5.34 3.055 1.435 2.542 1.373 5.297-.139 6.15-1.513.856-3.901-.514-5.338-3.055C-1.571 3.609-1.51.856 0 0" style="fill:#fff;fill-opacity:1" transform="translate(370.07 708.329)"/></g></g></svg>