<svg viewBox="0 0 250 250" xmlns="http://www.w3.org/2000/svg" xmlns:xlink="http://www.w3.org/1999/xlink" xmlns:bx="https://boxy-svg.com"><defs><clipPath id="a"><path d="M0 841.89h595.28V0H0z" style="fill:none;clip-rule:nonzero"/></clipPath><clipPath id="c" style="clip-path:url(#a)"><path style="clip-rule:nonzero" d="M152.582 52.328h176.379v109.401H152.582z"/></clipPath><clipPath id="d" style="clip-path:url(#a)"><path style="clip-rule:nonzero" d="M173.989 127.477H276.15v24.73H173.989z"/></clipPath><clipPath id="e" style="clip-path:url(#a)"><path style="clip-rule:nonzero" d="M178.793 81.702h99.216v66.191h-99.216z"/></clipPath><clipPath id="f" style="clip-path:url(#b)"><path style="clip-rule:nonzero" d="M175.981 35.141h324.043V813.06H175.981z"/></clipPath><clipPath id="b"><path d="M0 841.89h595.28V0H0z" style="fill:none;clip-rule:nonzero"/></clipPath><clipPath id="g"><path d="M0 841.89h595.28V0H0z" style="fill:none;clip-rule:nonzero"/></clipPath></defs><a transform="translate(-125 -125)" xlink:href="https://www.spacebabies.nl"><g style="clip-path:url(#a)" transform="matrix(0 1.02229 1 0 125.086 -30.983)" bx:origin="-2.24417 -1.747695"><path d="M0 0s-1.781-8.325 2.167-14.905c0 0-.452 9.909 17.529 7.88 0 0-3.93 9.81 8.349 28.087 0 0 38.015 21.785 38.746-9.796 0 0 2.194-4.814 13.451-3.502 0 0 13.306 29.09-16.962 51.021 0 0-3.069 22.078 3.073 41.962 0 0-6.142-3.655-16.23 0 0 0-3.948-2.633-2.047-16.229 0 0-28.071.585-41.523-17.399 0 0-9.942 7.31-17.253 11.111 0 0-4.694-1.109-7.026-5.452S0 0 0 0" style="fill:#48d3cf;fill-opacity:1" transform="translate(290.278 86.83)"/></g><g style="clip-path:url(#a)" transform="matrix(0 1.02229 1 0 125.086 -30.983)" bx:origin="-2.528914 -16.418824"><path d="M0 0s22.784 31.997 58.325 8.755" style="fill:#48d3cf;fill-opacity:1" transform="translate(193.046 152.509)"/></g><g style="clip-path:url(#c)" transform="matrix(0 1.02229 1 0 125.086 -30.983)" bx:origin="-0.606853 -1.668429"><path d="M0 0c15.142 3.299 66.672 11.404 73.041 6.579 6.352-4.824 13.668-14.772 14.387-22.071 0 0 3.509 5.263 6.439 7.456 0 0 3.509 2.193 9.071-.597 0 0 2.193 9.212 9.352 10.247 7.158 1.018 12.72 1.018 17.106-9.071 4.387-10.088-9.21-25.738-21.493-16.369 0 0-7.457-8.457-6-22.792 0 0-8.334-4.403-9.79-17.721 0 0-2.194-17.826-23.107-23.388 0 0-1.755 17.844-45.32 8.037 0 0-29.686-9.493-19.738-21.634 0 0-48.039-1.106-50.004 47.144C-48.021-5.931-15.142-3.299 0 0" style="fill:#eda024;fill-opacity:1" transform="translate(198.723 153.654)"/></g><g style="clip-path:url(#d)" transform="matrix(0 1.02229 1 0 125.086 -30.983)" bx:origin="-1.257259 -10.419838"><path d="M0 0s28.95 12.948 77.199 11.615c0 0 17.686.106 19.967-13.369 0 0-15.44 6.824-47.302 4.088C26.3.334-7.966 3.948 3.369-13.019c0 0-16.318 2.492-3.369 13.019" style="fill:#d68a1a;fill-opacity:1" transform="translate(178.984 140.495)"/></g><g style="clip-path:url(#e)" transform="matrix(0 1.02229 1 0 125.086 -30.983)" bx:origin="-1.342995 -3.201444"><path d="M0 0c9.229 5.702 83.34 15.352 90.586 0 0 0 5.492-18.423 1.527-28.512C88.183-38.6 76.778-45.828 73.69-47.811c-3.053-1.983-60.952-10.527-68.848-10.088 0 0-17.334 4.825-7.474 17.335C7.246-28.072 7.246-28.512 7.685-26.528c.439 1.965 2.193 5.473-1.316 9.422-3.509 3.947-7.246 4.158-8.334 5.035C-3.053-11.194-9.194-5.702 0 0" style="fill:#ffe9ca;fill-opacity:1" transform="translate(184.458 139.618)"/></g><g style="clip-path:url(#a)" transform="matrix(0 1.02229 1 0 125.086 -30.983)" bx:origin="-2.29986 -3.841437"><path d="M0 0s-24.747-5.272-29.681-17.005c0 0-2.302-22.92 37.722-24.638 0 0 29.608-1.17 29.608 30.779 0 0 .512 17.005-37.649 10.864" style="fill:#48d3cf;fill-opacity:1" transform="translate(230.16 76.575)"/></g><g style="clip-path:url(#a)" transform="matrix(0 1.02229 1 0 125.086 -30.983)" bx:origin="-15.072592 -15.328638"><path d="M0 0s1.313-8.918 13.814-4.387c0 0 9.579 11.99-3.873 15.937 0 0-11.257.438-9.941-11.55" style="fill:#48d3cf;fill-opacity:1" transform="translate(305.312 139.475)"/></g><g style="clip-path:url(#a)" transform="matrix(0 1.02229 1 0 125.086 -30.983)" bx:origin="-7.8624 -6.899832"><path d="M0 0s4.092-9.064 16.813-12.72c0 0-1.022-6.142 9.066-5.119 3.319.337 4.997 2.526 5.417 5.061.855 5.172-3.529 11.786-9.923 7.076 0 0-3.254 8.582-3.844 13.582 0 0-15.628 4.695-17.529-7.88" style="fill:#333;fill-opacity:1" transform="translate(292.446 71.925)"/></g><g style="clip-path:url(#a)" transform="matrix(0 1.02229 1 0 125.086 -30.983)" bx:origin="-6.020379 -12.528268"><path d="M0 0s-1.85 1.28-4.555 1.977c0 0-5.19 7.714-8.699 9.469 0 0-5.557-2.486-5.849-4.24 0 0-1.169 3.07 0 4.825 0 0-6.871 1.17-7.018 4.095 0 0 3.508-.731 6.433 0 0 0-4.387 1.462-4.24 4.239 0 0 3.363-.729 5.117-.729 0 0-.585 1.461.731 3.508 0 0 2.486-3.07 4.094-3.657 0 0 2.486 1.317 3.802-1.314 0 0 16.062-12.151 17.399-12.867" style="fill:#333;fill-opacity:1" transform="translate(272.363 159.755)"/></g><g style="clip-path:url(#a)" transform="matrix(0 1.02229 1 0 125.086 -30.983)" bx:origin="-11.050991 -6.729449"><path d="M0 0s-4.239-10.382-11.696-14.182c0 0-3.803-1.315 0-5.702 3.8-4.387 7.164-9.505 12.281-9.65 5.116-.147-1.17 9.063-2.193 10.088-1.024 1.023 7.004 1.689 15.2 16.272 0 0-2.482-2.968-13.592 3.174" style="fill:#333;fill-opacity:1" transform="translate(357.07 98.096)"/></g><g style="clip-path:url(#a)" transform="matrix(0 1.02229 1 0 125.086 -30.983)" bx:origin="-10.104125 -11.01876"><path d="M0 0s.585 9.064 8.48 16.668c0 0-4.678 2.338-10.82 2.046 0 0 6.142 11.697 28.95 7.018 0 0-9.65-23.179-10.381-25.732C15.499-2.555 1.461-2.339 0 0" style="fill:#333;fill-opacity:1" transform="translate(340.401 187.577)"/></g><g style="clip-path:url(#a)" transform="matrix(0 1.02229 1 0 125.086 -30.983)" bx:origin="-10.104128 -39.080889"><path d="M0 0s27.708 5.483 28.95 7.019c0 0-20.761 6.579-28.95-7.019" style="fill:#666;fill-opacity:1" transform="translate(338.062 206.291)"/></g><g style="clip-path:url(#a)" transform="matrix(0 1.02229 1 0 125.086 -30.983)" bx:origin="-78.27256 -27.290178"><path d="M0 0s2.779-5.054 1.792-6.261c-.986-1.207-3.322 0-3.322 0" style="fill:#333;fill-opacity:1" transform="translate(323.695 62.102)"/></g><g style="clip-path:url(#a)" transform="matrix(0 1.02229 1 0 125.086 -30.983)" bx:origin="-49.090472 -3.582112"><path d="M0 0c1.936 0 3.508-15.709 3.508-35.091 0-19.38-1.572-35.09-3.508-35.09-1.939 0-3.511 15.71-3.511 35.09C-3.511-15.709-1.939 0 0 0" style="fill:#c1c1c1;fill-opacity:1" transform="translate(393.624 191.378)"/></g><g style="clip-path:url(#a)" transform="matrix(0 1.02229 1 0 125.086 -30.983)" bx:origin="-19.848673 -60.78946"><path d="M0 0c2.138-.426 4.025.001 4.214.952.189.948-1.393 2.065-3.531 2.489-2.139.425-4.024-.001-4.214-.951C-3.719 1.539-2.138.424 0 0" style="fill:#000;fill-opacity:1" transform="translate(203.426 99.19)"/></g><g style="clip-path:url(#a)" transform="matrix(0 1.02229 1 0 125.086 -30.983)" bx:origin="-21.150429 -78.054043"><path d="M0 0c2.138-.424 4-.123 4.159.672.157.796-1.449 1.786-3.587 2.212-2.138.423-4 .123-4.158-.673C-3.744 1.416-2.138.426 0 0" style="fill:#000;fill-opacity:1" transform="translate(213.405 125.067)"/></g><g style="clip-path:url(#a)" transform="matrix(0 1.02229 1 0 125.086 -30.983)" bx:origin="-3.398578 -6.032749"><path d="M0 0s40.135 21.053 14.475 35.418c0 0 29.937-9.539 34.761-19.738C54.062 5.481 21.493-5.703 0 0" style="fill:#000;fill-opacity:1" transform="translate(214.514 94.332)"/></g><g style="clip-path:url(#a)" transform="matrix(0 1.02229 1 0 125.086 -30.983)" bx:origin="-36.581546 -31.267714"><path d="M0 0h1.919S.713 5.265 4.551 6.36C4.551 6.36-.11 9.924 0 0" style="fill:#000;fill-opacity:1" transform="translate(212.102 88.136)"/></g><g style="clip-path:url(#a)" transform="matrix(0 1.02229 1 0 125.086 -30.983)" bx:origin="-48.172994 -128.771942"><path d="M0 0s-.475.658-.292 1.098c0 0 2.486-.036 3.728.915C3.436 2.013 1.792.184 0 0" style="fill:#000;fill-opacity:1" transform="translate(227.49 129.019)"/></g><g style="clip-path:url(#a)" transform="matrix(0 1.02229 1 0 125.086 -30.983)" bx:origin="-6.889269 -9.746393"><path d="M0 0s14.128 8.992 17.637 22.479c0 0 5.373-2.63 8.006-5.81l-2.743-.988 1.134-5.702-7.165-3.949V2.741l-4.048-3.38z" style="fill:#fff;fill-opacity:1" transform="translate(222.208 95.757)"/></g><g style="clip-path:url(#a)" transform="matrix(0 1.02229 1 0 125.086 -30.983)" bx:origin="-7.024657 -11.716874"><path d="m0 0 4.277 3.4v2.852l5.921 3.508v6.141l4.508 1.426v1.864s10.845-2.85 12.05-3.838C27.963 14.366 28.84.221 0 0" style="fill:#fff;fill-opacity:1" transform="translate(236.665 94.66)"/></g><g style="clip-path:url(#f)" transform="matrix(0 1.02229 1 0 125.086 -30.983)" bx:origin="-3.349221 -3.88616"><path d="M0 0s30.759 1.735 40.189 19.707c0 0 7.47 12.966-6.572 18.979 0 0 15.626.529 17.46-11.753 0 0 2.089-43.776-51.077-26.933" style="fill:#515151;fill-opacity:1" transform="translate(216.652 38.997)"/></g><g style="clip-path:url(#f)" transform="matrix(0 1.02229 1 0 125.086 -30.983)" bx:origin="-4.505645 -2.093655"><path d="M0 0s34.286 3.15 35.602 31.881c1.315 28.73-1.995 44.221-9.292 49.815 0 0 22.726-11.232 17.434-73.729 0 0-3.694-14.686-22.257-19.949" style="fill:#515151;fill-opacity:1" transform="translate(246.242 77.912)"/></g><g style="clip-path:url(#f)" transform="matrix(0 1.02229 1 0 125.086 -30.983)" bx:origin="-4.865064 -25.129334"><path d="M0 0s19.014-3.628 24.498.539c0 0 .438-7.018 2.192-7.237C28.445-6.919 10.593-5.8 0 0" style="fill:#515151;fill-opacity:1" transform="translate(175.981 59.031)"/></g><g style="clip-path:url(#f)" transform="matrix(0 1.02229 1 0 125.086 -30.983)" bx:origin="-2.198756 -3.202017"><path d="M0 0s-9.001 7.22-3.957 11.065c0 0 7.896 14.155 10.747 16.787 2.851 2.632 3.29 12.183-.877 15.304 0 0-8.033 5.86-11.405 6.155 0 0-2.756 4.479 2.632 7.053 0 0 39.139 10.169 52.931 9.81 0 0-33.977-.648-53.396-7.532 0 0-12.255-5.146-3.483-12.814 8.773-7.668-.439.081-.439.081s15.36-4.066 9.362-16.362L-6.003 19.19s-6.402-5.639-3.968-11.757c0 0 1.133-4.51 9.971-7.433" style="fill:#515151;fill-opacity:1" transform="translate(189.302 81.72)"/></g><g style="clip-path:url(#f)" transform="matrix(0 1.02229 1 0 125.086 -30.983)" bx:origin="-3.573205 -1.18144"><path d="M0 0s-1.974 3.18-4.276 4.058c0 0 .675 6.468-7.393 4.276 0 0-22.544 18.861-6.205 38.49 0 0 39.545 56.086 16.319 67.026 0 0 11.936 2.022 14.422 1.657 0 0 3.034-5.3 9.393-3.654 0 0 .762 28.64 12.062 43.324 0 0 6.508 1.634 7.202 2.292 0 0-10.053-24.454-10.38-25.879-.331-1.425-5.921-17.616-3.073-41.816 0 0 28.5-17.975 17.103-50.693 0 0-4.692-7.768-7.706-10.368 0 0-5.009-4.478-7.696-5.465 0 0 5.061-6.408 4.34-9.235 0 0-.008-2.116-3.956-.964 0 0-3.675 1.206-6.744 5.154l-3.728 4.387s-3.838 4.112.877 5.703c0 0 7.074 4.331 11.021 13.926 0 0 2.338 30.302-38.746 10.126 0 0-11.696-17.695-8.188-28.366 0 0 1.224-7.162 3.683-13.597 0 0 7.028 5.702 9.877-4.121C-1.792 6.261.95 1.098 0 0" style="fill:#515151;fill-opacity:1" transform="translate(325.487 55.84)"/></g><g style="clip-path:url(#g)" transform="matrix(0 1.02229 1 0 125.086 -30.983)" bx:origin="-11.691978 -11.272835"><path d="M0 0c2.104-.57 2.524-5.803.937-11.689-1.588-5.886-4.581-10.2-6.686-9.631-2.105.567-2.524 5.799-.937 11.687C-5.099-3.747-2.105.566 0 0" style="fill:#fff;fill-opacity:1" transform="translate(164.826 132.639)"/></g><g style="clip-path:url(#g)" transform="matrix(0 1.02229 1 0 125.086 -30.983)" bx:origin="-9.635731 -15.938095"><path d="M0 0c1.114-2.588-1.543-6.222-5.938-8.115-4.394-1.894-8.859-1.328-9.975 1.261-1.114 2.586 1.544 6.22 5.938 8.112C-5.582 3.151-1.116 2.589 0 0" style="fill:#fff;fill-opacity:1" transform="translate(219.938 64.134)"/></g><g style="clip-path:url(#g)" transform="matrix(0 1.02229 1 0 125.086 -30.983)" bx:origin="-22.921338 -59.426245"><path d="M0 0c.464-1.079-.642-2.592-2.473-3.381-1.827-.787-3.687-.553-4.152.525-.463 1.078.643 2.589 2.473 3.378C-2.323 1.312-.464 1.076 0 0" style="fill:#fff;fill-opacity:1" transform="translate(208.97 161.037)"/></g></a></svg>