<svg viewBox="0 0 500 500" xmlns="http://www.w3.org/2000/svg" xmlns:xlink="http://www.w3.org/1999/xlink"><defs><clipPath id="b"><path d="M0 841.89h595.28V0H0z" style="fill:none;clip-rule:nonzero"/></clipPath><clipPath id="c" style="clip-path:url(#a)"><path style="clip-rule:nonzero" d="M175.981 35.141h324.043V813.06H175.981z"/></clipPath><clipPath id="a"><path d="M0 841.89h595.28V0H0z" style="fill:none;clip-rule:nonzero"/></clipPath><clipPath id="d"><path d="M0 841.89h595.28V0H0z" style="fill:none;clip-rule:nonzero"/></clipPath></defs><a xlink:href="https://www.spacebabies.nl"><g style="clip-path:url(#b)" transform="matrix(0 1.91305 1.91305 0 -427.674 -463.458)"><path d="M0 0c1.938 0 3.51-15.711 3.51-35.091 0-19.38-1.572-35.091-3.51-35.091-1.937 0-3.509 15.711-3.509 35.091C-3.509-15.711-1.937 0 0 0" style="fill:#c1c1c1;fill-opacity:1" transform="translate(500.115 404.114)"/></g><g style="clip-path:url(#b)" transform="matrix(0 1.91305 1.91305 0 -427.674 -463.458)"><path d="m0 0-27.017-2.554s0-9.43-7.676-8.334c-7.676 1.097-19.738 7.896-5.702 18.423 0 0 8.114 4.405 12.062-4.048 0 0 27.497 6.461 28.333 6.461" style="fill:#666;fill-opacity:1" transform="translate(289.123 345.478)"/></g><g style="clip-path:url(#b)" transform="matrix(0 1.91305 1.91305 0 -427.674 -463.458)"><path d="M0 0s-40.316 6.67-42.51 65.027c0 0-2.196 30.196 17.656 46.678 0 0 34.797 20.907 41.003-27.505C20.525 50.061 0 0 0 0" style="fill:#48d3cf;fill-opacity:1" transform="translate(327.534 291.386)"/></g><g style="clip-path:url(#b)" transform="matrix(0 1.91305 1.91305 0 -427.674 -463.458)"><path d="M0 0s-14.015 10.25-14.893 20.776c0 0-4.134 25.663 3.436 37.54C-3.999 70.013 2.142 71.914 2.142 71.914s8.116 2.669 10.454-6.397l-1.739-2.141s9.341 7.26 31.273-4.878l6.287 3.437s1.645-12.063 13.268-18.971c0 0-13.706-28.62-57.571-23.065L9.871 7.802z" style="fill:#48d3cf;fill-opacity:1" transform="translate(428.398 328.8)"/></g><g style="clip-path:url(#b)" transform="matrix(0 1.91305 1.91305 0 -427.674 -463.458)"><path d="M0 0s11.799-4.611 12.674-6.511c.878-1.901 4.715 1.336 8.701 15.373 0 0-3.188 2.531-5.907 3.091C12.748 12.518 0 0 0 0" style="fill:#48d3cf;fill-opacity:1" transform="translate(468.746 353.582)"/></g><g style="clip-path:url(#b)" transform="matrix(0 1.91305 1.91305 0 -427.674 -463.458)"><path d="M0 0s-17.545 22.81 4.095 45.618c0 0-.726 58.338-4.679 63.893 0 0-13.744 7.458-24.27 2.194 0 0 18.421 23.394 90.944 11.696 0 0 16.373-11.112 21.052-33.044 0 0 19.774 9.579 26.939 11.588 0 0-2.814-9.249.841-29.717 0 0-8.625 1.023-13.304 9.21-4.68 8.189.29.586.29.586s-17.399-13.598-14.18-25.003c0 0-1.024-27.633-9.357-32.312C69.656 19.818 13.161-6.287 0 0" style="fill:#eda024;fill-opacity:1" transform="translate(327.534 291.386)"/></g><g style="clip-path:url(#b)" transform="matrix(0 1.91305 1.91305 0 -427.674 -463.458)"><path d="m0 0-4.605 5.044L0 10.748z" style="fill:#48d3cf;fill-opacity:1" transform="translate(436.754 378.089)"/></g><g style="clip-path:url(#b)" transform="matrix(0 1.91305 1.91305 0 -427.674 -463.458)"><path d="m0 0-3.363 1.524s48.541 25.04 60.603-19.81C71.06-69.665 0 0 0 0" style="fill:#d68a1a;fill-opacity:1" transform="translate(330.313 399.372)"/></g><g style="clip-path:url(#b)" transform="matrix(0 1.91305 1.91305 0 -427.674 -463.458)"><path d="M0 0s-49.126-26.977-65.429 26.684c0 0-5.262 28.948 34.214 40.938 0 0 26.788 8.403 43.862-23.393C26.977 17.544 0 0 0 0" style="fill:#ffe9ca;fill-opacity:1" transform="translate(377.466 338.1)"/></g><g style="clip-path:url(#b)" transform="matrix(0 1.91305 1.91305 0 -427.674 -463.458)"><path d="M0 0s-3.217 8.187 9.796 7.895c0 0 6.289-9.212 9.943-9.651 0 0 4.387 1.608 5.558 1.461l1.899-1.461-1.315-1.17s3.216-4.241 3.362-6.14l-2.047-1.462h-2.194s-8.917-9.943-12.864 0C12.138-10.528.296-1.242 0 0" style="fill:#333;fill-opacity:1" transform="translate(427.98 329.402)"/></g><g style="clip-path:url(#b)" transform="matrix(0 1.91305 1.91305 0 -427.674 -463.458)"><path d="M0 0s-2.413 7.238-10.527 6.58c0 0 6.687 9.979 14.584 10.636 0 0 9.978.878 7.457-5.591 0 0 .656-.11.877-.769 0 0-2.083-4.167-4.825-1.974C7.566 8.882.548 2.632 0 0" style="fill:#333;fill-opacity:1" transform="translate(441.067 394.135)"/></g><g style="clip-path:url(#b)" transform="matrix(0 1.91305 1.91305 0 -427.674 -463.458)"><path d="M0 0s-16.668 5.264-13.268 18.971l7.567 2.742s-5.813 5.194-4.168 9.286c0 0 9.98 3.764 19.3-8.629 0 0 4.168-6.141-9.431-22.37" style="fill:#333;fill-opacity:1" transform="translate(490.083 371.765)"/></g><g style="clip-path:url(#b)" transform="matrix(0 1.91305 1.91305 0 -427.674 -463.458)"><path d="M0 0s7.346 7.019 8.662 15.022c0 0 3.988-1.944 5.744-5.137.062-.114.121-.229.177-.345 1.646-3.399-.056.116-.056.116s3.894 3.502 6.964 2.186c0 0 3.729-12.719-10.197-19.079C11.294-7.237 0-2.961 0 0" style="fill:#333;fill-opacity:1" transform="translate(480.545 347.97)"/></g><g style="clip-path:url(#b)" transform="matrix(0 1.91305 1.91305 0 -427.674 -463.458)"><path d="M0 0s21.45-20.016 19.626-9.405c0 0-6.138 12.731-19.626 9.405" style="fill:#666;fill-opacity:1" transform="translate(480.214 402.764)"/></g><g style="clip-path:url(#b)" transform="matrix(0 1.91305 1.91305 0 -427.674 -463.458)"><path d="M0 0c1.696 0 3.071-1.341 3.071-2.994 0-1.653-1.375-2.993-3.071-2.993-1.694 0-3.071 1.34-3.071 2.993C-3.071-1.341-1.694 0 0 0" style="fill:#000;fill-opacity:1" transform="translate(348.296 343.291)"/></g><g style="clip-path:url(#b)" transform="matrix(0 1.91305 1.91305 0 -427.674 -463.458)"><path d="M0 0c1.409 0 2.555-.719 2.555-1.604 0-.884-1.146-1.604-2.555-1.604-1.411 0-2.558.72-2.558 1.604C-2.558-.719-1.411 0 0 0" style="fill:#000;fill-opacity:1" transform="translate(355.392 398.576)"/></g><g style="clip-path:url(#b)" transform="matrix(0 1.91305 1.91305 0 -427.674 -463.458)"><path d="M0 0s15.748 32.787 13.445 41.999c0 0 18.642-10.308 19.85-19.738 0 0-3.534-19.63-33.295-22.261" style="fill:#000;fill-opacity:1" transform="translate(352.834 347.312)"/></g><g style="clip-path:url(#b)" transform="matrix(0 1.91305 1.91305 0 -427.674 -463.458)"><path d="M0 0h6.907l4.497 8.005L8.883 0l2.521-.548s16.23 7.02 17.765 15.024c0 0 1.097 3.07-.986 5.044-2.083 1.974-8.993 10.527-11.515 12.282 0 0-2.741 1.095-5.702.548C10.966 32.35 4.825 9.102 0 0" style="fill:#fff;fill-opacity:1" transform="translate(356.52 352.136)"/></g><g style="clip-path:url(#b)" transform="matrix(0 1.91305 1.91305 0 -427.674 -463.458)"><path d="M0 0s-22.74-15.171-14.698-36.81c0 0-3.418 22.072 18.805 35.085" style="fill:#34ada7;fill-opacity:1" transform="translate(326.95 400.897)"/></g><g style="clip-path:url(#c)" transform="matrix(0 1.91305 1.91305 0 -427.674 -463.458)"><path d="M0 0s-16.065 11.961-4.113 37.415c0 0 59.656-4.922 59.363 34.521 0 0 1.061 23.72-18.862 38.379 0 0 .916 15.574 15.611 13.086 0 0 17.287-12.023 21.052-33.044 0 0 1.931-26.006.318-28.657 0 0 .644-26.463-8.068-36.258C65.301 25.442 32.739 7.164 0 0" style="fill:#515151;fill-opacity:1" transform="translate(341.625 291.386)"/></g><g style="clip-path:url(#c)" transform="matrix(0 1.91305 1.91305 0 -427.674 -463.458)"><path d="M0 0s-18.252 6.599-23.297 25.46c0 0 56.509 1.5 64.992 34.311 0 0 10.483-.553 4.73 4.58 0 0 6.887-4.364 6.267.822 0 0 1.592-8.209-9.866-21.169 0 0-10.05-16.631-20.724-18.386 0 0-13.817-7.823-36.7-4.678 0 0 5.334-15.5 14.598-20.94" style="fill:#515151;fill-opacity:1" transform="translate(447.257 327.76)"/></g><g style="clip-path:url(#c)" transform="matrix(0 1.91305 1.91305 0 -427.674 -463.458)"><path d="M0 0s10.96 2.755 14.527 9.656c0 0-.475 2.749-9.695 7.568 0 0-4.832-7.172-16.019-11.815" style="fill:#515151;fill-opacity:1" transform="translate(480.545 347.97)"/></g><g style="clip-path:url(#c)" transform="matrix(0 1.91305 1.91305 0 -427.674 -463.458)"><path d="m0 0-16.588-6.67S-1.885 17.159 11.04 18.643c0 0 3.784-.345 2.285-5.06-1.497-4.717-.621.108-.621.108s-3.51-1.592-3.363-2.55C9.341 11.141.895 2.683 0 0" style="fill:#515151;fill-opacity:1" transform="translate(439.256 392.177)"/></g><g style="clip-path:url(#c)" transform="matrix(0 1.91305 1.91305 0 -427.674 -463.458)"><path d="M0 0s-30.487 17.496-21.494 45.318c0 0 1.084 19.011 33.481 28.493 0 0-35.18-4.65-39.084-35.505 0 0-.144-6.778-.031-7.135.114-.356 4.614-24 27.128-31.171" style="fill:#515151;fill-opacity:1" transform="translate(339.38 332.916)"/></g><g style="clip-path:url(#c)" transform="matrix(0 1.91305 1.91305 0 -427.674 -463.458)"><path d="M0 0s11.482 7.157 2.709 17.994c0 0 6.336.614 9.285-5.272 0 0-1.828-2.46 0-3.191l24.692 3.708V8.89L13.09 6.754S13.958-5.878 0 0" style="fill:#515151;fill-opacity:1" transform="translate(248.796 336.244)"/></g><g style="clip-path:url(#d)" transform="matrix(0 1.91305 1.91305 0 -427.674 -463.458)"><path d="M0 0c3.45-1.623 9.145 3.224 12.718 10.821 3.575 7.598 3.676 15.076.228 16.698C9.497 29.142 3.803 24.296.229 16.696-3.346 9.099-3.449 1.621 0 0" style="fill:#fff;fill-opacity:1" transform="translate(296.207 373.773)"/></g><g style="clip-path:url(#d)" transform="matrix(0 1.91305 1.91305 0 -427.674 -463.458)"><path d="M0 0c-1.128.737-4.073-1.77-6.572-5.601-2.498-3.829-3.61-7.535-2.479-8.271 1.128-.736 4.073 1.772 6.572 5.601C.02-4.44 1.133-.736 0 0" style="fill:#fff;fill-opacity:1" transform="translate(401.656 334.696)"/></g><g style="clip-path:url(#d)" transform="matrix(0 1.91305 1.91305 0 -427.674 -463.458)"><path d="M0 0c1.25 1.039 1.583 2.701.741 3.715-.84 1.013-2.536.992-3.785-.044-1.252-1.038-1.583-2.7-.742-3.714C-2.945-1.056-1.25-1.036 0 0" style="fill:#fff;fill-opacity:1" transform="translate(250.318 346.227)"/></g></a></svg>