<svg viewBox="0 0 500 500" xmlns="http://www.w3.org/2000/svg"><defs><clipPath id="b"><path d="M0 841.89h595.28V0H0z" style="fill:none;clip-rule:nonzero"/></clipPath><clipPath id="c" style="clip-path:url(#a)"><path style="clip-rule:nonzero" d="M175.981 35.141h324.043V813.06H175.981z"/></clipPath><clipPath id="a"><path d="M0 841.89h595.28V0H0z" style="fill:none;clip-rule:nonzero"/></clipPath><clipPath id="d"><path d="M0 841.89h595.28V0H0z" style="fill:none;clip-rule:nonzero"/></clipPath></defs><g style="clip-path:url(#b)" transform="matrix(0 2.30164 2.30164 0 -1038.279 -278.59)"><path d="M0 0c6.155.165 12.115-35.766 13.309-80.246 1.192-44.49-2.836-80.684-8.992-80.848-6.157-.165-12.114 35.76-13.306 80.248C-10.181-36.364-6.156-.165 0 0" style="fill:#c1c1c1;fill-opacity:1" transform="translate(324.459 651.68)"/></g><g style="clip-path:url(#b)" transform="matrix(0 2.30164 2.30164 0 -1038.279 -278.59)"><path d="M0 0s2.628 15.938 4.164 24.417c0 0 8.994-5.556 10.31-7.456 0 0 5.556 4.532 7.31-2.486C23.539 7.457 27.632-13.891 6.724 0z" style="fill:#333;fill-opacity:1" transform="translate(314.962 515.526)"/></g><g style="clip-path:url(#b)" transform="matrix(0 2.30164 2.30164 0 -1038.279 -278.59)"><path d="M0 0s-9.066 11.548-4.973 19.152l7.313 1.609s4.092 4.531 7.163 4.093c0 0 6.502-8.334 2.154-21.199 0 0-2.154-1.463-6.686-.585 0 0-1.41-1.754-4.971-3.07" style="fill:#333;fill-opacity:1" transform="translate(314.962 600.915)"/></g><g style="clip-path:url(#b)" transform="matrix(0 2.30164 2.30164 0 -1038.279 -278.59)"><path d="M0 0s-39.038 13.816-46.056 62.505c-7.018 48.688 31.801 68.646 34.323 69.523 2.522.877 57.352-2.412 52.964-29.169C36.845 76.103 29.389-12.721 0 0" style="fill:#333;fill-opacity:1" transform="translate(207.057 496.666)"/></g><g style="clip-path:url(#b)" transform="matrix(0 2.30164 2.30164 0 -1038.279 -278.59)"><path d="m0 0-19.517 5.834-3.217-2.916s-3.948-1.031-4.094 2.916c0 0-10.674-1.317-11.843 2.777 0 0-.585 2.634 7.896 1.902 0 0-9.944 2.924-6.58 6.432 0 0 2.047 1.463 9.504-1.607 0 0 5.264 12.134 14.329 1.023 0 0 21.346-.66 23.978-2.67C13.088 11.682 4.845-1.449 0 0" style="fill:#333;fill-opacity:1" transform="translate(193.531 627.832)"/></g><g style="clip-path:url(#b)" transform="matrix(0 2.30164 2.30164 0 -1038.279 -278.59)"><path d="M0 0s-6.434-.731-15.646 1.754c0 0-10.526-19.883-21.054-18.86 0 0-30.119-4.387-30.704-3.948 0 0 6.726 15.059 2.779 85.242 0 0 10.673 3.802 8.334 19.299-2.34 15.498-11.113 11.844-11.113 11.844s-6.287 26.807-23.832 27.978c0 0 31.8 7.403 67.548-19.791l18.715 1.022S-9.267 99.241 0 85.388c0 0-8.444-5.228-15.134-4.46 0 0 8.444-15.462 5.813-45.617L4.164 24.417" style="fill:#48d3cf;fill-opacity:1" transform="translate(314.962 515.526)"/></g><g style="clip-path:url(#b)" transform="matrix(0 2.30164 2.30164 0 -1038.279 -278.59)"><path d="M0 0s-17.325 1.974-19.299 18.094c0 0 11.369-3.178 4.569 82.574 0 0 9.686 4.751 8.48 21.2-1.207 16.449-14.344 15.569-14.125 15.13.22-.439-2.543 23.323-21.624 24.2 0 0-3.18.219-6.908 0 0 0-7.128 2.96-13.926 2.741 0 0-8.116-4.057-8.664-12.83 0 0 16.449-1.206 21.932-19.847 0 0 6.689.877 9.869-3.949 0 0 15.609 2.889 15.901-8.223.273-10.401-5.044-11.625-12.612-10.418 0 0-2.192-6.58-5.372-8.444 0 0 7.566-87.398-17.985-81.147 0 0 6.361-6.031 16.229-7.457 0 0 17.619-39.184 43.535-11.624" style="fill:#eda024;fill-opacity:1" transform="translate(266.82 477.584)"/></g><g style="clip-path:url(#b)" transform="matrix(0 2.30164 2.30164 0 -1038.279 -278.59)"><path d="M0 0s6.178 8.7 6.617 11.185c0 0 6.287-9.43 7.603-5.592 0 0 1.754 3.108-3.363 10.126 0 0 6.288-2.193 5.995 3.217 0 0-.878 2.777-5.995 2.777 0 0-20.982 11.33-30.156-3.619 0 0-2.377-15.828 19.299-18.094" style="fill:#333;fill-opacity:1" transform="translate(266.82 477.584)"/></g><g style="clip-path:url(#b)" transform="matrix(0 2.30164 2.30164 0 -1038.279 -278.59)"><path d="M0 0c2.463 0 4.46-1.899 4.46-4.241 0-2.342-1.997-4.241-4.46-4.241s-4.459 1.899-4.459 4.241C-4.459-1.899-2.463 0 0 0" style="fill:#48d3cf;fill-opacity:1" transform="translate(232.718 599.744)"/></g><g style="clip-path:url(#b)" transform="matrix(0 2.30164 2.30164 0 -1038.279 -278.59)"><path d="m0 0-14.255.803s-5.264-2.557-5.483-2.557c-.22 0-4.022 1.168-2.998 5.189 0 0 13.598 4.826 14.402 8.408 0 0 1.242 6.582 6.945.951C4.312 7.164 3.965.363 0 .293" style="fill:#eda024;fill-opacity:1" transform="translate(178.474 522.034)"/></g><g style="clip-path:url(#b)" transform="matrix(0 2.30164 2.30164 0 -1038.279 -278.59)"><path d="M0 0s-5.776 3.947-9.066 4.167l-14.475.951s-2.045 1.533 1.609 5.19c0 0 15.206-.95 18.057 1.024 0 0 6.287 8.115 10.235-.657C10.307 1.901 2.047.51 0 0" style="fill:#eda024;fill-opacity:1" transform="translate(163.999 572.403)"/></g><g style="clip-path:url(#b)" transform="matrix(0 2.30164 2.30164 0 -1038.279 -278.59)"><path d="M0 0c2.147.95 4.927-.628 6.209-3.526 1.283-2.895.583-6.016-1.564-6.967-2.146-.949-4.928.627-6.21 3.524C-2.847-4.073-2.145-.951 0 0" style="fill:#eda024;fill-opacity:1" transform="translate(141.607 521.806)"/></g><g style="clip-path:url(#b)" transform="matrix(0 2.30164 2.30164 0 -1038.279 -278.59)"><path d="M0 0c-.325 2.603 2.257 5.068 5.769 5.505 3.508.44 6.62-1.313 6.947-3.913.323-2.601-2.258-5.07-5.769-5.509C3.438-4.354.326-2.599 0 0" style="fill:#eda024;fill-opacity:1" transform="translate(121.067 578.295)"/></g><g style="clip-path:url(#b)" transform="matrix(0 2.30164 2.30164 0 -1038.279 -278.59)"><path d="M0 0s-15.9-.523-22.699 33.36c0 0-4.387 28.511 0 38.49 0 0 9.43 8.773 18.751-3.399 0 0 5.373-27.291 7.895-61.841 0 0 .878-4.989-3.947-6.61" style="fill:#ffe9ca;fill-opacity:1" transform="translate(205.523 522.082)"/></g><g style="clip-path:url(#b)" transform="matrix(0 2.30164 2.30164 0 -1038.279 -278.59)"><path d="M0 0c1.278-.38 1.842-2.265 1.264-4.21-.579-1.942-2.083-3.212-3.36-2.832-1.279.38-1.843 2.265-1.264 4.21C-2.781-.89-1.278.38 0 0" style="fill:#000;fill-opacity:1" transform="translate(198.017 538.512)"/></g><g style="clip-path:url(#b)" transform="matrix(0 2.30164 2.30164 0 -1038.279 -278.59)"><path d="M0 0c1.954-.672 3.21-2.166 2.806-3.34-.404-1.175-2.313-1.581-4.267-.91-1.955.672-3.209 2.167-2.806 3.341C-3.864.266-1.954.672 0 0" style="fill:#000;fill-opacity:1" transform="translate(190.525 590.938)"/></g><g style="clip-path:url(#b)" transform="matrix(0 2.30164 2.30164 0 -1038.279 -278.59)"><path d="M0 0v1.315L3.141 1.1s.568 8.841-3.819 9.938c0 0-1.023-.075-1.169-.878l-1.462.073s.55 4.02 4.332 1.901c0 0 5.756-4.823 3.124-12.573 0 0-2.3-.658-4.147.439" style="fill:#000;fill-opacity:1" transform="translate(193.407 553.032)"/></g><g style="clip-path:url(#c)" transform="matrix(0 2.30164 2.30164 0 -1038.279 -278.59)"><path d="M0 0s20.061 7.063 29.164 25.517c0 0 7.036-13.04 8.325-12.152l-6.68 6.479S20.291-6.028 0 0" style="fill:#515151;fill-opacity:1" transform="translate(242.262 468.925)"/></g><g style="clip-path:url(#c)" transform="matrix(0 2.30164 2.30164 0 -1038.279 -278.59)"><path d="M0 0s32.788 90.252-6.852 133.877c0 0 18.478-3.967 37.12-18.222 0 0-.658-7.896 6.141-14.255 0 0 18.857-.219 21.71 3.289 0 0 8.33-2.851 8.991 7.677 0 0 .207-10.552-1.498-11.185-1.705-.635-4.202-.878-6.614-.439 0 0-12.061-8.992-20.396-7.676 0 0 8.553-14.695 6.032-45.618 0 0-8.663-14.475-4.277-22.809l22.005-5.687 1.007-.259S75.273 7.422 76 22.048c0 0 4.37-14.722-5.22-14.509 0 0-7.834 1.967-9.807 5.037 0 0-15.133-1.754-23.03 1.755 0 0-8.631-17.934-17.664-19.047 0 0-3.384 1.683-3.828.625 0 0-10.003 5.52-16.451 4.091" style="fill:#515151;fill-opacity:1" transform="translate(261.007 503.389)"/></g><g style="clip-path:url(#c)" transform="matrix(0 2.30164 2.30164 0 -1038.279 -278.59)"><path d="M0 0s-9.005 26.296-6.519 51.374c0 0-1.483 10.682 11.978 9.618 0 0-4.368 3.47-12.412-1.649 0 0-2.759-7.56-1.809-19.739 0 0-.217-22.771 8.762-39.604" style="fill:#515151;fill-opacity:1" transform="translate(189.744 534.99)"/></g><g style="clip-path:url(#c)" transform="matrix(0 2.30164 2.30164 0 -1038.279 -278.59)"><path d="M0 0s-8.588-5.737-10.344-11.585c0 0-6.288 2.336-4.46 8.186 0 0 7.017 5.628 14.804 3.399" style="fill:#515151;fill-opacity:1" transform="translate(247.522 495.678)"/></g><g style="clip-path:url(#d)" transform="matrix(0 2.30164 2.30164 0 -1038.279 -278.59)"><path d="M0 0c1.445-.817 3.73.492 5.103 2.919 1.372 2.428 1.313 5.062-.133 5.878-1.447.817-3.73-.491-5.102-2.92C-1.504 3.449-1.446.817 0 0" style="fill:#fff;fill-opacity:1" transform="translate(168.928 592.592)"/></g></svg>