<svg viewBox="0 0 500 500" xmlns="http://www.w3.org/2000/svg" xmlns:xlink="http://www.w3.org/1999/xlink"><defs><clipPath id="b"><path d="M0 841.89h595.28V0H0z" style="fill:none;clip-rule:nonzero"/></clipPath><clipPath id="c" style="clip-path:url(#a)"><path style="clip-rule:nonzero" d="M175.981 35.141h324.043V813.06H175.981z"/></clipPath><clipPath id="a"><path d="M0 841.89h595.28V0H0z" style="fill:none;clip-rule:nonzero"/></clipPath><clipPath id="d"><path d="M0 841.89h595.28V0H0z" style="fill:none;clip-rule:nonzero"/></clipPath></defs><a xlink:href="https://www.spacebabies.nl"><g style="clip-path:url(#b)" transform="matrix(0 2.48138 2.48138 0 -1625.063 -685.377)"><path d="M0 0c4.003.106 7.842-21.632 8.569-48.558C9.3-75.489 6.642-97.404 2.64-97.512c-4.005-.108-7.841 21.63-8.57 48.56C-6.658-22.026-4.001-.108 0 0" style="fill:#c1c1c1;fill-opacity:1" transform="translate(469.019 803.588)"/></g><g style="clip-path:url(#b)" transform="matrix(0 2.48138 2.48138 0 -1625.063 -685.377)"><path d="M0 0s-47.381 8.275-56.269 48.574c-7.469 33.87-4.887 60.693 34.676 71.709C17.971 131.302 0 0 0 0" style="fill:#48d3cf;fill-opacity:1" transform="translate(335.799 695.393)"/></g><g style="clip-path:url(#b)" transform="matrix(0 2.48138 2.48138 0 -1625.063 -685.377)"><path d="M0 0s-9.602 11.115-6.614 24.626C-3.632 38.137.815 48.633 2.462 48.945c1.648.312-4.856 10.08-4.856 10.08l-3.242 6.389s-33.83-9.683-36.819-13.055c0 0-4.515-.042-8.62.024-2.182.038-4.249.106-5.463.228l.232 2.281s15.953-7.888 7.717 12.346c0 0-15.824 23.646-25.974-15.591 0 0-25.844 39.358-62.232 32.686 0 0-26.781-25.721 21.099-120.955 0 0 34.615-7.918 48.38 36.538 0 0 7.169-33.646 24.468-22.468 0 0 2.962 16.161-4.614 18.252-7.576 2.089-.684.51-.684.51l-2.544-1.913-.531 7.808s6.41-3.44 11.051-4.058c0 0 25.462-15.831 35.176-17.897" style="fill:#eda024;fill-opacity:1" transform="translate(456.172 731.69)"/></g><g style="clip-path:url(#b)" transform="matrix(0 2.48138 2.48138 0 -1625.063 -685.377)"><path d="M0 0s2.761 1.202 1.745 4.385c0 0-8.985 10.121-15.12 18.354 0 0-10.451-.634-14.43-2.648 0 0-5.759-.62 9.53-17.226C-18.275 2.865-4.597-.437 0 0" style="fill:#333;fill-opacity:1" transform="translate(469.638 709.299)"/></g><g style="clip-path:url(#b)" transform="matrix(0 2.48138 2.48138 0 -1625.063 -685.377)"><path d="M0 0s-11.221 1.304-14.08 1.36c-2.858.056-2.227 3.189-1.543 4.557.683 1.365 2.348 6.051 6.34 9.741 3.991 3.692 18.571 2.945 19.512 2.413 0 0 1.324-1.118.281-5.093C9.464 9 .271.524 0 0" style="fill:#333;fill-opacity:1" transform="translate(458.493 780.993)"/></g><g style="clip-path:url(#b)" transform="matrix(0 2.48138 2.48138 0 -1625.063 -685.377)"><path d="M0 0s4.226 2.68 4.189 12.963c0 0 6.372-3.993 5.532-.532 0 0-2.04 9.304-11.34 10.348 0 0-2.381-2.989-3.77-4.043 0 0-4.083-10.326-3.077-15.126C-8.466 3.61-1.603.155 0 0" style="fill:#333;fill-opacity:1" transform="translate(413.523 709.282)"/></g><g style="clip-path:url(#b)" transform="matrix(0 2.48138 2.48138 0 -1625.063 -685.377)"><path d="m0 0-6.551 11.182s1.613 3.183 8.07 4.562c0 0 3.703-3.046 3.644-8.298 0 0 1.477 4.961 1.299 6.153 0 0 3.681 1.81 4.137-5.834 0 0-.967-18.954-10.599-7.765" style="fill:#333;fill-opacity:1" transform="translate(404.257 785.265)"/></g><g style="clip-path:url(#b)" transform="matrix(0 2.48138 2.48138 0 -1625.063 -685.377)"><path d="m0 0-1.323 3.257L8.479 7.21S4.729 1.611 0 0" style="fill:#d68a1a;fill-opacity:1" transform="translate(326.288 729.217)"/></g><g style="clip-path:url(#b)" transform="matrix(0 2.48138 2.48138 0 -1625.063 -685.377)"><path d="M0 0s-44.895 91.813-19.922 121.151c0 0-5.217.483-7.368-.831 0 0-20.608-33.662 22.613-119.995z" style="fill:#333;fill-opacity:1" transform="translate(340.476 695.068)"/></g><g style="clip-path:url(#b)" transform="matrix(0 2.48138 2.48138 0 -1625.063 -685.377)"><path d="m0 0 .899-2.43S-24.717-3.483-21.29 29.786" style="fill:#34ada7;fill-opacity:1" transform="translate(320.065 731.599)"/></g><g style="clip-path:url(#b)" transform="matrix(0 2.48138 2.48138 0 -1625.063 -685.377)"><path d="M0 0c1.688-.163 2.93-1.597 2.776-3.202-.155-1.607-1.65-2.777-3.338-2.615-1.687.163-2.929 1.598-2.776 3.204C-3.182-1.006-1.688.163 0 0" style="fill:#48d3cf;fill-opacity:1" transform="translate(352.288 728.487)"/></g><g style="clip-path:url(#b)" transform="matrix(0 2.48138 2.48138 0 -1625.063 -685.377)"><path d="M0 0c1.686-.162 2.93-1.595 2.774-3.202C2.62-4.809 1.126-5.98-.563-5.817c-1.688.163-2.931 1.599-2.775 3.206C-3.184-1.006-1.688.165 0 0" style="fill:#48d3cf;fill-opacity:1" transform="translate(352.124 764.418)"/></g><g style="clip-path:url(#b)" transform="matrix(0 2.48138 2.48138 0 -1625.063 -685.377)"><path d="M0 0c1.688-.165 2.929-1.597 2.773-3.204-.155-1.605-1.649-2.777-3.336-2.614-1.688.162-2.93 1.598-2.775 3.206C-3.183-1.007-1.688.163 0 0" style="fill:#48d3cf;fill-opacity:1" transform="translate(333.531 793.977)"/></g><g style="clip-path:url(#b)" transform="matrix(0 2.48138 2.48138 0 -1625.063 -685.377)"><path d="M0 0s-32.828-20.517-35.975 24.477c0 0-.397 23.25 27.486 16.884 0 0 21.699-15.609 8.489-41.361" style="fill:#ffe9ca;fill-opacity:1" transform="translate(334.768 736.428)"/></g><g style="clip-path:url(#b)" transform="matrix(0 2.48138 2.48138 0 -1625.063 -685.377)"><path d="M0 0c1.167-.394 1.938-1.231 1.723-1.867-.217-.64-1.336-.84-2.504-.446-1.165.395-1.939 1.23-1.722 1.87C-2.286.195-1.168.395 0 0" style="fill:#000;fill-opacity:1" transform="translate(308.308 745.078)"/></g><g style="clip-path:url(#b)" transform="matrix(0 2.48138 2.48138 0 -1625.063 -685.377)"><path d="M0 0c1.09.572 2.229.554 2.54-.042.314-.597-.314-1.548-1.406-2.119-1.089-.572-2.227-.553-2.539.045C-1.72-1.521-1.091-.573 0 0" style="fill:#000;fill-opacity:1" transform="translate(304.852 765.146)"/></g><g style="clip-path:url(#b)" transform="matrix(0 2.48138 2.48138 0 -1625.063 -685.377)"><path d="M0 0s7.569-3.006 6.798 9.552C6.027 22.111 1.451 34.306-4.176 30.663c0 0 8.708 3.71 10.164-21.143C5.988 9.52 7.297-.485 0 0" style="fill:#000;fill-opacity:1" transform="translate(314.024 739.9)"/></g><g style="clip-path:url(#b)" transform="matrix(0 2.48138 2.48138 0 -1625.063 -685.377)"><path d="M0 0s1.992 1.24-7.548 8.551c0 0 .847 4.215 5.485 7.732 0 0 1.907 2.68-1.29 3.21 0 0-15.087-.526-21.069-6.558 0 0-2.564-3.76 9.381-8.969C-3.095-1.242.184-2.661 0 0" style="fill:#48d3cf;fill-opacity:1" transform="translate(415.525 745.593)"/></g><g style="clip-path:url(#c)" transform="matrix(0 2.48138 2.48138 0 -1625.063 -685.377)"><path d="M0 0s-47.543 28.668-27.596 107.629c0 0 14.928-3.893 35.421-29.722 0 0 15.347-20.61 7.247-51.732C15.072 26.175 5.604 1.729 0 0" style="fill:#515151;fill-opacity:1" transform="translate(373.783 705.43)"/></g><g style="clip-path:url(#c)" transform="matrix(0 2.48138 2.48138 0 -1625.063 -685.377)"><path d="M0 0s-31.549 21.64-29.57 38.893c1.982 17.252 8.311 39.251 27.954 48.575 0 0 1.295-1.498-.023-5.885l-10.087-12.187s-19.739-29.702-2.631-49.22L1.045 2.087S1.044-.74 0 0" style="fill:#515151;fill-opacity:1" transform="translate(470.338 711.597)"/></g><g style="clip-path:url(#c)" transform="matrix(0 2.48138 2.48138 0 -1625.063 -685.377)"><path d="M0 0c.344-.58-1.847 39.846-1.847 39.846S-16.668 28.143 0 0" style="fill:#515151;fill-opacity:1" transform="translate(444.137 732.061)"/></g><g style="clip-path:url(#c)" transform="matrix(0 2.48138 2.48138 0 -1625.063 -685.377)"><path d="M0 0s-30.239 20.734-8.457 46.003c0 0-8.588-1.302-11.606-15.211 0 0 .516-18.553 8.136-25.461C-11.927 5.331-8.831.444 0 0" style="fill:#515151;fill-opacity:1" transform="translate(318.522 731.777)"/></g><g style="clip-path:url(#d)" transform="matrix(0 2.48138 2.48138 0 -1625.063 -685.377)"><path d="M0 0c3.904-2.204 10.074 1.33 13.78 7.887 3.705 6.56 3.546 13.669-.359 15.874-3.903 2.206-10.072-1.327-13.778-7.888C-4.063 9.314-3.903 2.207 0 0" style="fill:#fff;fill-opacity:1" transform="translate(284.74 768.953)"/></g><g style="clip-path:url(#d)" transform="matrix(0 2.48138 2.48138 0 -1625.063 -685.377)"><path d="M0 0c1.515-.854 3.904.515 5.34 3.055 1.435 2.542 1.373 5.297-.139 6.15-1.513.856-3.901-.514-5.338-3.055C-1.571 3.609-1.51.856 0 0" style="fill:#fff;fill-opacity:1" transform="translate(370.07 708.329)"/></g></a></svg>