<?xml version="1.0" encoding="utf-8"?>
<svg viewBox="0 0 180 244.5" xmlns="http://www.w3.org/2000/svg">
  <defs>
    <clipPath id="clippath0" transform="">
      <path d="M 0 841.89 L 595.28 841.89 L 595.28 0 L 0 0 Z" style="fill: none; clip-rule: nonzero;"/>
    </clipPath>
    <clipPath id="clippath1" transform="" style="clip-path: url(#clippath0);">
      <rect x="152.582" y="52.3281" width="176.379" height="109.4009" style="clip-rule: nonzero;"/>
    </clipPath>
    <clipPath id="clippath2" transform="" style="clip-path: url(#clippath0);">
      <rect x="173.989" y="127.477" width="102.161" height="24.73" style="clip-rule: nonzero;"/>
    </clipPath>
    <clipPath id="clippath3" transform="" style="clip-path: url(#clippath0);">
      <rect x="178.793" y="81.7021" width="99.216" height="66.1909" style="clip-rule: nonzero;"/>
    </clipPath>
    <clipPath id="clippath8" transform="" style="clip-path: url(#clippath7);">
      <rect x="175.981" y="35.1406" width="324.043" height="777.9194" style="clip-rule: nonzero;"/>
    </clipPath>
    <clipPath id="clippath7" transform="">
      <path d="M 0 841.89 L 595.28 841.89 L 595.28 0 L 0 0 Z" style="fill: none; clip-rule: nonzero;"/>
    </clipPath>
    <clipPath id="clippath9" transform="">
      <path d="M 0 841.89 L 595.28 841.89 L 595.28 0 L 0 0 Z" style="fill: none; clip-rule: nonzero;"/>
    </clipPath>
  </defs>
  <g style="clip-path: url(#clippath0);" transform="matrix(0, 1, 1, 0, -34.926754, -152.582367)">
    <g transform="translate(290.2783 86.8301)">
      <path d="M 0 0 C 0 0 -1.781 -8.325 2.167 -14.905 C 2.167 -14.905 1.715 -4.996 19.696 -7.025 C 19.696 -7.025 15.766 2.785 28.045 21.062 C 28.045 21.062 66.06 42.847 66.791 11.266 C 66.791 11.266 68.985 6.452 80.242 7.764 C 80.242 7.764 93.548 36.854 63.28 58.785 C 63.28 58.785 60.211 80.863 66.353 100.747 C 66.353 100.747 60.211 97.092 50.123 100.747 C 50.123 100.747 46.175 98.114 48.076 84.518 C 48.076 84.518 20.005 85.103 6.553 67.119 C 6.553 67.119 -3.389 74.429 -10.7 78.23 C -10.7 78.23 -15.394 77.121 -17.726 72.778 C -20.058 68.435 0 0 0 0" style="fill: rgb(72, 211, 207); fill-opacity: 1;"/>
    </g>
  </g>
  <g style="clip-path: url(#clippath0);" transform="matrix(0, 1, 1, 0, -34.926754, -152.582367)">
    <g transform="translate(193.0459 152.5088)">
      <path d="M 0 0 C 0 0 22.784 31.997 58.325 8.755" style="fill: rgb(72, 211, 207); fill-opacity: 1;"/>
    </g>
  </g>
  <g style="clip-path: url(#clippath1);" transform="matrix(0, 1, 1, 0, -34.926754, -152.582367)">
    <g transform="translate(198.7227 153.6543)">
      <path d="M 0 0 C 15.142 3.299 66.672 11.404 73.041 6.579 C 79.393 1.755 86.709 -8.193 87.428 -15.492 C 87.428 -15.492 90.937 -10.229 93.867 -8.036 C 93.867 -8.036 97.376 -5.843 102.938 -8.633 C 102.938 -8.633 105.131 0.579 112.29 1.614 C 119.448 2.632 125.01 2.632 129.396 -7.457 C 133.783 -17.545 120.186 -33.195 107.903 -23.826 C 107.903 -23.826 100.446 -32.283 101.903 -46.618 C 101.903 -46.618 93.569 -51.021 92.113 -64.339 C 92.113 -64.339 89.919 -82.165 69.006 -87.727 C 69.006 -87.727 67.251 -69.883 23.686 -79.69 C 23.686 -79.69 -6 -89.183 3.948 -101.324 C 3.948 -101.324 -44.091 -102.43 -46.056 -54.18 C -48.021 -5.931 -15.142 -3.299 0 0" style="fill: rgb(237, 160, 36); fill-opacity: 1;"/>
    </g>
  </g>
  <g style="clip-path: url(#clippath2);" transform="matrix(0, 1, 1, 0, -34.926754, -152.582367)">
    <g transform="translate(178.9844 140.4951)">
      <path d="M 0 0 C 0 0 28.95 12.948 77.199 11.615 C 77.199 11.615 94.885 11.721 97.166 -1.754 C 97.166 -1.754 81.726 5.07 49.864 2.334 C 26.3 0.334 -7.966 3.948 3.369 -13.019 C 3.369 -13.019 -12.949 -10.527 0 0" style="fill: rgb(214, 138, 26); fill-opacity: 1;"/>
    </g>
  </g>
  <g style="clip-path: url(#clippath3);" transform="matrix(0, 1, 1, 0, -34.926754, -152.582367)">
    <g transform="translate(184.4585 139.6182)">
      <path d="M 0 0 C 9.229 5.702 83.34 15.352 90.586 0 C 90.586 0 96.078 -18.423 92.113 -28.512 C 88.183 -38.6 76.778 -45.828 73.69 -47.811 C 70.637 -49.794 12.738 -58.338 4.842 -57.899 C 4.842 -57.899 -12.492 -53.074 -2.632 -40.564 C 7.246 -28.072 7.246 -28.512 7.685 -26.528 C 8.124 -24.563 9.878 -21.055 6.369 -17.106 C 2.86 -13.159 -0.877 -12.948 -1.965 -12.071 C -3.053 -11.194 -9.194 -5.702 0 0" style="fill: rgb(255, 233, 202); fill-opacity: 1;"/>
    </g>
  </g>
  <g style="clip-path: url(#clippath0);" transform="matrix(0, 1, 1, 0, -34.926754, -152.582367)">
    <g transform="translate(230.1592 76.5752)">
      <path d="M 0 0 C 0 0 -24.747 -5.272 -29.681 -17.005 C -29.681 -17.005 -31.983 -39.925 8.041 -41.643 C 8.041 -41.643 37.649 -42.813 37.649 -10.864 C 37.649 -10.864 38.161 6.141 0 0" style="fill: rgb(72, 211, 207); fill-opacity: 1;"/>
    </g>
  </g>
  <g style="clip-path: url(#clippath0);" transform="matrix(0, 1, 1, 0, -34.926754, -152.582367)">
    <g transform="translate(305.3115 139.4746)">
      <path d="M 0 0 C 0 0 1.313 -8.918 13.814 -4.387 C 13.814 -4.387 23.393 7.603 9.941 11.55 C 9.941 11.55 -1.316 11.988 0 0" style="fill: rgb(72, 211, 207); fill-opacity: 1;"/>
    </g>
  </g>
  <g style="clip-path: url(#clippath0);" transform="matrix(0, 1, 1, 0, -34.926754, -152.582367)">
    <g transform="translate(292.4458 71.9248)">
      <path d="M 0 0 C 0 0 4.092 -9.064 16.813 -12.72 C 16.813 -12.72 15.791 -18.862 25.879 -17.839 C 29.198 -17.502 30.876 -15.313 31.296 -12.778 C 32.151 -7.606 27.767 -0.992 21.373 -5.702 C 21.373 -5.702 18.119 2.88 17.529 7.88 C 17.529 7.88 1.901 12.575 0 0" style="fill: rgb(51, 51, 51); fill-opacity: 1;"/>
    </g>
  </g>
  <g style="clip-path: url(#clippath0);" transform="matrix(0, 1, 1, 0, -34.926754, -152.582367)">
    <g transform="translate(272.3633 159.7549)">
      <path d="M 0 0 C 0 0 -1.85 1.28 -4.555 1.977 C -4.555 1.977 -9.745 9.691 -13.254 11.446 C -13.254 11.446 -18.811 8.96 -19.103 7.206 C -19.103 7.206 -20.272 10.276 -19.103 12.031 C -19.103 12.031 -25.974 13.201 -26.121 16.126 C -26.121 16.126 -22.613 15.395 -19.688 16.126 C -19.688 16.126 -24.075 17.588 -23.928 20.365 C -23.928 20.365 -20.565 19.636 -18.811 19.636 C -18.811 19.636 -19.396 21.097 -18.08 23.144 C -18.08 23.144 -15.594 20.074 -13.986 19.487 C -13.986 19.487 -11.5 20.804 -10.184 18.173 C -10.184 18.173 5.878 6.022 7.215 5.306" style="fill: rgb(51, 51, 51); fill-opacity: 1;"/>
    </g>
  </g>
  <g style="clip-path: url(#clippath0);" transform="matrix(0, 1, 1, 0, -34.926754, -152.582367)">
    <g transform="translate(357.0693 98.0957)">
      <path d="M 0 0 C 0 0 -4.239 -10.382 -11.696 -14.182 C -11.696 -14.182 -15.499 -15.497 -11.696 -19.884 C -7.896 -24.271 -4.532 -29.389 0.585 -29.534 C 5.701 -29.681 -0.585 -20.471 -1.608 -19.446 C -2.632 -18.423 5.396 -17.757 13.592 -3.174 C 13.592 -3.174 11.11 -6.142 0 0" style="fill: rgb(51, 51, 51); fill-opacity: 1;"/>
    </g>
  </g>
  <g style="clip-path: url(#clippath0);" transform="matrix(0, 1, 1, 0, -34.926754, -152.582367)">
    <g transform="translate(340.4014 187.5771)">
      <path d="M 0 0 C 0 0 0.585 9.064 8.48 16.668 C 8.48 16.668 3.802 19.006 -2.34 18.714 C -2.34 18.714 3.802 30.411 26.61 25.732 C 26.61 25.732 16.96 2.553 16.229 0 C 15.499 -2.555 1.461 -2.339 0 0" style="fill: rgb(51, 51, 51); fill-opacity: 1;"/>
    </g>
  </g>
  <g style="clip-path: url(#clippath0);" transform="matrix(0, 1, 1, 0, -34.926754, -152.582367)">
    <g transform="translate(338.0615 206.291)">
      <path d="M 0 0 C 0 0 27.708 5.483 28.95 7.019 C 28.95 7.019 8.189 13.598 0 0" style="fill: rgb(102, 102, 102); fill-opacity: 1;"/>
    </g>
  </g>
  <g style="clip-path: url(#clippath0);" transform="matrix(0, 1, 1, 0, -34.926754, -152.582367)">
    <g transform="translate(323.6953 62.1016)">
      <path d="M 0 0 C 0 0 2.779 -5.054 1.792 -6.261 C 0.806 -7.468 -1.53 -6.261 -1.53 -6.261" style="fill: rgb(51, 51, 51); fill-opacity: 1;"/>
    </g>
  </g>
  <g style="clip-path: url(#clippath0);" transform="matrix(0, 1, 1, 0, -34.926754, -152.582367)">
    <g transform="translate(393.624 191.3779)">
      <path d="M 0 0 C 1.936 0 3.508 -15.709 3.508 -35.091 C 3.508 -54.471 1.936 -70.181 0 -70.181 C -1.939 -70.181 -3.511 -54.471 -3.511 -35.091 C -3.511 -15.709 -1.939 0 0 0" style="fill: rgb(193, 193, 193); fill-opacity: 1;"/>
    </g>
  </g>
  <g style="clip-path: url(#clippath0);" transform="matrix(0, 1, 1, 0, -34.926754, -152.582367)">
    <g transform="translate(203.4263 99.1895)">
      <path d="M 0 0 C 2.138 -0.426 4.025 0.001 4.214 0.952 C 4.403 1.9 2.821 3.017 0.683 3.441 C -1.456 3.866 -3.341 3.44 -3.531 2.49 C -3.719 1.539 -2.138 0.424 0 0" style="fill: rgb(0, 0, 0); fill-opacity: 1;"/>
    </g>
  </g>
  <g style="clip-path: url(#clippath0);" transform="matrix(0, 1, 1, 0, -34.926754, -152.582367)">
    <g transform="translate(213.4048 125.0674)">
      <path d="M 0 0 C 2.138 -0.424 4 -0.123 4.159 0.672 C 4.316 1.468 2.71 2.458 0.572 2.884 C -1.566 3.307 -3.428 3.007 -3.586 2.211 C -3.744 1.416 -2.138 0.426 0 0" style="fill: rgb(0, 0, 0); fill-opacity: 1;"/>
    </g>
  </g>
  <g style="clip-path: url(#clippath0);" transform="matrix(0, 1, 1, 0, -34.926754, -152.582367)">
    <g transform="translate(214.5142 94.332)">
      <path d="M 0 0 C 0 0 40.135 21.053 14.475 35.418 C 14.475 35.418 44.412 25.879 49.236 15.68 C 54.062 5.481 21.493 -5.703 0 0" style="fill: rgb(0, 0, 0); fill-opacity: 1;"/>
    </g>
  </g>
  <g style="clip-path: url(#clippath0);" transform="matrix(0, 1, 1, 0, -34.926754, -152.582367)">
    <g transform="translate(212.1016 88.1357)">
      <path d="M 0 0 L 1.919 0 C 1.919 0 0.713 5.265 4.551 6.36 C 4.551 6.36 -0.11 9.924 0 0" style="fill: rgb(0, 0, 0); fill-opacity: 1;"/>
    </g>
  </g>
  <g style="clip-path: url(#clippath0);" transform="matrix(0, 1, 1, 0, -34.926754, -152.582367)">
    <g transform="translate(227.4907 129.0186)">
      <path d="M 0 0 C 0 0 -0.475 0.658 -0.292 1.098 C -0.292 1.098 2.194 1.062 3.436 2.013 C 3.436 2.013 1.792 0.184 0 0" style="fill: rgb(0, 0, 0); fill-opacity: 1;"/>
    </g>
  </g>
  <g style="clip-path: url(#clippath0);" transform="matrix(0, 1, 1, 0, -34.926754, -152.582367)">
    <g transform="translate(222.2085 95.7568)">
      <path d="M 0 0 C 0 0 14.128 8.992 17.637 22.479 C 17.637 22.479 23.01 19.849 25.643 16.669 L 22.9 15.681 L 24.034 9.979 L 16.869 6.03 L 16.869 2.741 L 12.821 -0.639 Z" style="fill: rgb(255, 255, 255); fill-opacity: 1;"/>
    </g>
  </g>
  <g style="clip-path: url(#clippath0);" transform="matrix(0, 1, 1, 0, -34.926754, -152.582367)">
    <g transform="translate(236.665 94.6592)">
      <path d="M 0 0 L 4.277 3.4 L 4.277 6.252 L 10.198 9.76 L 10.198 15.901 L 14.706 17.327 L 14.706 19.191 C 14.706 19.191 25.551 16.341 26.756 15.353 C 27.963 14.366 28.84 0.221 0 0" style="fill: rgb(255, 255, 255); fill-opacity: 1;"/>
    </g>
  </g>
  <g style="clip-path: url(#clippath8);" transform="matrix(0, 1, 1, 0, -34.926754, -152.582367)">
    <g transform="translate(216.6523 38.9971)">
      <path d="M 0 0 C 0 0 30.759 1.735 40.189 19.707 C 40.189 19.707 47.659 32.673 33.617 38.686 C 33.617 38.686 49.243 39.215 51.077 26.933 C 51.077 26.933 53.166 -16.843 0 0" style="fill: rgb(81, 81, 81); fill-opacity: 1;"/>
    </g>
  </g>
  <g style="clip-path: url(#clippath8);" transform="matrix(0, 1, 1, 0, -34.926754, -152.582367)">
    <g transform="translate(246.2422 77.9121)">
      <path d="M 0 0 C 0 0 34.286 3.15 35.602 31.881 C 36.917 60.611 33.607 76.102 26.31 81.696 C 26.31 81.696 49.036 70.464 43.744 7.967 C 43.744 7.967 40.05 -6.719 21.487 -11.982" style="fill: rgb(81, 81, 81); fill-opacity: 1;"/>
    </g>
  </g>
  <g style="clip-path: url(#clippath8);" transform="matrix(0, 1, 1, 0, -34.926754, -152.582367)">
    <g transform="translate(175.981 59.0313)">
      <path d="M 0 0 C 0 0 19.014 -3.628 24.498 0.539 C 24.498 0.539 24.936 -6.479 26.69 -6.698 C 28.445 -6.919 10.593 -5.8 0 0" style="fill: rgb(81, 81, 81); fill-opacity: 1;"/>
    </g>
  </g>
  <g style="clip-path: url(#clippath8);" transform="matrix(0, 1, 1, 0, -34.926754, -152.582367)">
    <g transform="translate(189.3018 81.7207)">
      <path d="M 0 0 C 0 0 -9.001 7.22 -3.957 11.065 C -3.957 11.065 3.939 25.22 6.79 27.852 C 9.641 30.484 10.08 40.035 5.913 43.156 C 5.913 43.156 -2.12 49.016 -5.492 49.311 C -5.492 49.311 -8.248 53.79 -2.86 56.364 C -2.86 56.364 36.279 66.533 50.071 66.174 C 50.071 66.174 16.094 65.526 -3.325 58.642 C -3.325 58.642 -15.58 53.496 -6.808 45.828 C 1.965 38.16 -7.247 45.909 -7.247 45.909 C -7.247 45.909 8.113 41.843 2.115 29.547 L -6.003 19.19 C -6.003 19.19 -12.405 13.551 -9.971 7.433 C -9.971 7.433 -8.838 2.923 0 0" style="fill: rgb(81, 81, 81); fill-opacity: 1;"/>
    </g>
  </g>
  <g style="clip-path: url(#clippath8);" transform="matrix(0, 1, 1, 0, -34.926754, -152.582367)">
    <g transform="translate(325.4873 55.8408)">
      <path d="M 0 0 C 0 0 -1.974 3.18 -4.276 4.058 C -4.276 4.058 -3.601 10.526 -11.669 8.334 C -11.669 8.334 -34.213 27.195 -17.874 46.824 C -17.874 46.824 21.671 102.91 -1.555 113.85 C -1.555 113.85 10.381 115.872 12.867 115.507 C 12.867 115.507 15.901 110.207 22.26 111.853 C 22.26 111.853 23.022 140.493 34.322 155.177 C 34.322 155.177 40.83 156.811 41.524 157.469 C 41.524 157.469 31.471 133.015 31.144 131.59 C 30.813 130.165 25.223 113.974 28.071 89.774 C 28.071 89.774 56.571 71.799 45.174 39.081 C 45.174 39.081 40.482 31.313 37.468 28.713 C 37.468 28.713 32.459 24.235 29.772 23.248 C 29.772 23.248 34.833 16.84 34.112 14.013 C 34.112 14.013 34.104 11.897 30.156 13.049 C 30.156 13.049 26.481 14.255 23.412 18.203 L 19.684 22.59 C 19.684 22.59 15.846 26.702 20.561 28.293 C 20.561 28.293 27.635 32.624 31.582 42.219 C 31.582 42.219 33.92 72.521 -7.164 52.345 C -7.164 52.345 -18.86 34.65 -15.352 23.979 C -15.352 23.979 -14.128 16.817 -11.669 10.382 C -11.669 10.382 -4.641 16.084 -1.792 6.261 C -1.792 6.261 0.95 1.098 0 0" style="fill: rgb(81, 81, 81); fill-opacity: 1;"/>
    </g>
  </g>
  <g style="clip-path: url(#clippath9);" transform="matrix(0, 1, 1, 0, -34.926754, -152.582367)">
    <g transform="translate(164.8257 132.6387)">
      <path d="M 0 0 C 2.104 -0.57 2.524 -5.803 0.937 -11.689 C -0.651 -17.575 -3.644 -21.889 -5.749 -21.32 C -7.854 -20.753 -8.273 -15.521 -6.686 -9.633 C -5.099 -3.747 -2.105 0.566 0 0" style="fill: rgb(255, 255, 255); fill-opacity: 1;"/>
    </g>
  </g>
  <g style="clip-path: url(#clippath9);" transform="matrix(0, 1, 1, 0, -34.926754, -152.582367)">
    <g transform="translate(219.9375 64.1338)">
      <path d="M 0 0 C 1.114 -2.588 -1.543 -6.222 -5.938 -8.115 C -10.332 -10.009 -14.797 -9.443 -15.913 -6.854 C -17.027 -4.268 -14.369 -0.634 -9.975 1.258 C -5.582 3.151 -1.116 2.589 0 0" style="fill: rgb(255, 255, 255); fill-opacity: 1;"/>
    </g>
  </g>
  <g style="clip-path: url(#clippath9);" transform="matrix(0, 1, 1, 0, -34.926754, -152.582367)">
    <g transform="translate(208.9702 161.0371)">
      <path d="M 0 0 C 0.464 -1.079 -0.642 -2.592 -2.473 -3.381 C -4.3 -4.168 -6.16 -3.934 -6.625 -2.856 C -7.088 -1.778 -5.982 -0.267 -4.152 0.522 C -2.323 1.312 -0.464 1.076 0 0" style="fill: rgb(255, 255, 255); fill-opacity: 1;"/>
    </g>
  </g>
</svg>