<?xml version="1.0" encoding="utf-8"?>
<svg viewBox="0 0 127.6 261.4" xmlns="http://www.w3.org/2000/svg">
  <defs>
    <clipPath id="clippath4" transform="">
      <path d="M 0 841.89 L 595.28 841.89 L 595.28 0 L 0 0 Z" style="fill: none; clip-rule: nonzero;"/>
    </clipPath>
    <clipPath id="clippath8" transform="" style="clip-path: url(#clippath7);">
      <rect x="175.981" y="35.1406" width="324.043" height="777.9194" style="clip-rule: nonzero;"/>
    </clipPath>
    <clipPath id="clippath7" transform="">
      <path d="M 0 841.89 L 595.28 841.89 L 595.28 0 L 0 0 Z" style="fill: none; clip-rule: nonzero;"/>
    </clipPath>
    <clipPath id="clippath9" transform="">
      <path d="M 0 841.89 L 595.28 841.89 L 595.28 0 L 0 0 Z" style="fill: none; clip-rule: nonzero;"/>
    </clipPath>
  </defs>
  <g style="clip-path: url(#clippath4);" transform="matrix(0, 1, 1, 0, -290.414459, -242.261856)">
    <g transform="translate(500.1152 404.1143)">
      <path d="M 0 0 C 1.938 0 3.51 -15.711 3.51 -35.091 C 3.51 -54.471 1.938 -70.182 0 -70.182 C -1.937 -70.182 -3.509 -54.471 -3.509 -35.091 C -3.509 -15.711 -1.937 0 0 0" style="fill: rgb(193, 193, 193); fill-opacity: 1;"/>
    </g>
  </g>
  <g style="clip-path: url(#clippath4);" transform="matrix(0, 1, 1, 0, -290.414459, -242.261856)">
    <g transform="translate(289.1226 345.4785)">
      <path d="M 0 0 L -27.017 -2.554 C -27.017 -2.554 -27.017 -11.984 -34.693 -10.888 C -42.369 -9.791 -54.431 -2.992 -40.395 7.535 C -40.395 7.535 -32.281 11.94 -28.333 3.487 C -28.333 3.487 -0.836 9.948 0 9.948" style="fill: rgb(102, 102, 102); fill-opacity: 1;"/>
    </g>
  </g>
  <g style="clip-path: url(#clippath4);" transform="matrix(0, 1, 1, 0, -290.414459, -242.261856)">
    <g transform="translate(327.5342 291.3857)">
      <path d="M 0 0 C 0 0 -40.316 6.67 -42.51 65.027 C -42.51 65.027 -44.706 95.223 -24.854 111.705 C -24.854 111.705 9.943 132.612 16.149 84.2 C 20.525 50.061 0 0 0 0" style="fill: rgb(72, 211, 207); fill-opacity: 1;"/>
    </g>
  </g>
  <g style="clip-path: url(#clippath4);" transform="matrix(0, 1, 1, 0, -290.414459, -242.261856)">
    <g transform="translate(428.3984 328.8008)">
      <path d="M 0 0 C 0 0 -14.015 10.25 -14.893 20.776 C -14.893 20.776 -19.027 46.439 -11.457 58.316 C -3.999 70.013 2.142 71.914 2.142 71.914 C 2.142 71.914 10.258 74.583 12.596 65.517 L 10.857 63.376 C 10.857 63.376 20.198 70.636 42.13 58.498 L 48.417 61.935 C 48.417 61.935 50.062 49.872 61.685 42.964 C 61.685 42.964 47.979 14.344 4.114 19.899 L 9.871 7.802 Z" style="fill: rgb(72, 211, 207); fill-opacity: 1;"/>
    </g>
  </g>
  <g style="clip-path: url(#clippath4);" transform="matrix(0, 1, 1, 0, -290.414459, -242.261856)">
    <g transform="translate(468.7461 353.582)">
      <path d="M 0 0 C 0 0 11.799 -4.611 12.674 -6.511 C 13.552 -8.412 17.389 -5.175 21.375 8.862 C 21.375 8.862 18.187 11.393 15.468 11.953 C 12.748 12.518 0 0 0 0" style="fill: rgb(72, 211, 207); fill-opacity: 1;"/>
    </g>
  </g>
  <g style="clip-path: url(#clippath4);" transform="matrix(0, 1, 1, 0, -290.414459, -242.261856)">
    <g transform="translate(327.5342 291.3857)">
      <path d="M 0 0 C 0 0 -17.545 22.81 4.095 45.618 C 4.095 45.618 3.369 103.956 -0.584 109.511 C -0.584 109.511 -14.328 116.969 -24.854 111.705 C -24.854 111.705 -6.433 135.099 66.09 123.401 C 66.09 123.401 82.463 112.289 87.142 90.357 C 87.142 90.357 106.916 99.936 114.081 101.945 C 114.081 101.945 111.267 92.696 114.922 72.228 C 114.922 72.228 106.297 73.251 101.618 81.438 C 96.938 89.627 101.908 82.024 101.908 82.024 C 101.908 82.024 84.509 68.426 87.728 57.021 C 87.728 57.021 86.704 29.388 78.371 24.709 C 69.656 19.818 13.161 -6.287 0 0" style="fill: rgb(237, 160, 36); fill-opacity: 1;"/>
    </g>
  </g>
  <g style="clip-path: url(#clippath4);" transform="matrix(0, 1, 1, 0, -290.414459, -242.261856)">
    <g transform="translate(436.7539 378.0889)">
      <path d="M 0 0 L -4.605 5.044 L 0 10.748 Z" style="fill: rgb(72, 211, 207); fill-opacity: 1;"/>
    </g>
  </g>
  <g style="clip-path: url(#clippath4);" transform="matrix(0, 1, 1, 0, -290.414459, -242.261856)">
    <g transform="translate(330.3135 399.3721)">
      <path d="M 0 0 L -3.363 1.524 C -3.363 1.524 45.178 26.564 57.24 -18.286 C 71.06 -69.665 0 0 0 0" style="fill: rgb(214, 138, 26); fill-opacity: 1;"/>
    </g>
  </g>
  <g style="clip-path: url(#clippath4);" transform="matrix(0, 1, 1, 0, -290.414459, -242.261856)">
    <g transform="translate(377.4658 338.1006)">
      <path d="M 0 0 C 0 0 -49.126 -26.977 -65.429 26.684 C -65.429 26.684 -70.691 55.632 -31.215 67.622 C -31.215 67.622 -4.427 76.025 12.647 44.229 C 26.977 17.544 0 0 0 0" style="fill: rgb(255, 233, 202); fill-opacity: 1;"/>
    </g>
  </g>
  <g style="clip-path: url(#clippath4);" transform="matrix(0, 1, 1, 0, -290.414459, -242.261856)">
    <g transform="translate(427.9805 329.4023)">
      <path d="M 0 0 C 0 0 -3.217 8.187 9.796 7.895 C 9.796 7.895 16.085 -1.317 19.739 -1.756 C 19.739 -1.756 24.126 -0.148 25.297 -0.295 L 27.196 -1.756 L 25.881 -2.926 C 25.881 -2.926 29.097 -7.167 29.243 -9.066 L 27.196 -10.528 L 25.002 -10.528 C 25.002 -10.528 16.085 -20.471 12.138 -10.528 C 12.138 -10.528 0.296 -1.242 0 0" style="fill: rgb(51, 51, 51); fill-opacity: 1;"/>
    </g>
  </g>
  <g style="clip-path: url(#clippath4);" transform="matrix(0, 1, 1, 0, -290.414459, -242.261856)">
    <g transform="translate(441.0674 394.1348)">
      <path d="M 0 0 C 0 0 -2.413 7.238 -10.527 6.58 C -10.527 6.58 -3.84 16.559 4.057 17.216 C 4.057 17.216 14.035 18.094 11.514 11.625 C 11.514 11.625 12.17 11.515 12.391 10.856 C 12.391 10.856 10.308 6.689 7.566 8.882 C 7.566 8.882 0.548 2.632 0 0" style="fill: rgb(51, 51, 51); fill-opacity: 1;"/>
    </g>
  </g>
  <g style="clip-path: url(#clippath4);" transform="matrix(0, 1, 1, 0, -290.414459, -242.261856)">
    <g transform="translate(490.083 371.7646)">
      <path d="M 0 0 C 0 0 -16.668 5.264 -13.268 18.971 L -5.701 21.713 C -5.701 21.713 -11.514 26.907 -9.869 30.999 C -9.869 30.999 0.111 34.763 9.431 22.37 C 9.431 22.37 13.599 16.229 0 0" style="fill: rgb(51, 51, 51); fill-opacity: 1;"/>
    </g>
  </g>
  <g style="clip-path: url(#clippath4);" transform="matrix(0, 1, 1, 0, -290.414459, -242.261856)">
    <g transform="translate(480.5449 347.9697)">
      <path d="M 0 0 C 0 0 7.346 7.019 8.662 15.022 C 8.662 15.022 12.65 13.078 14.406 9.885 C 14.468 9.771 14.527 9.656 14.583 9.54 C 16.229 6.141 14.527 9.656 14.527 9.656 C 14.527 9.656 18.421 13.158 21.491 11.842 C 21.491 11.842 25.22 -0.877 11.294 -7.237 C 11.294 -7.237 0 -2.961 0 0" style="fill: rgb(51, 51, 51); fill-opacity: 1;"/>
    </g>
  </g>
  <g style="clip-path: url(#clippath4);" transform="matrix(0, 1, 1, 0, -290.414459, -242.261856)">
    <g transform="translate(480.2139 402.7637)">
      <path d="M 0 0 C 0 0 21.45 -20.016 19.626 -9.405 C 19.626 -9.405 13.488 3.326 0 0" style="fill: rgb(102, 102, 102); fill-opacity: 1;"/>
    </g>
  </g>
  <g style="clip-path: url(#clippath4);" transform="matrix(0, 1, 1, 0, -290.414459, -242.261856)">
    <g transform="translate(348.2959 343.291)">
      <path d="M 0 0 C 1.696 0 3.071 -1.341 3.071 -2.994 C 3.071 -4.647 1.696 -5.987 0 -5.987 C -1.694 -5.987 -3.071 -4.647 -3.071 -2.994 C -3.071 -1.341 -1.694 0 0 0" style="fill: rgb(0, 0, 0); fill-opacity: 1;"/>
    </g>
  </g>
  <g style="clip-path: url(#clippath4);" transform="matrix(0, 1, 1, 0, -290.414459, -242.261856)">
    <g transform="translate(355.3916 398.5762)">
      <path d="M 0 0 C 1.409 0 2.555 -0.719 2.555 -1.604 C 2.555 -2.488 1.409 -3.208 0 -3.208 C -1.411 -3.208 -2.558 -2.488 -2.558 -1.604 C -2.558 -0.719 -1.411 0 0 0" style="fill: rgb(0, 0, 0); fill-opacity: 1;"/>
    </g>
  </g>
  <g style="clip-path: url(#clippath4);" transform="matrix(0, 1, 1, 0, -290.414459, -242.261856)">
    <g transform="translate(352.834 347.3115)">
      <path d="M 0 0 C 0 0 15.748 32.787 13.445 41.999 C 13.445 41.999 32.087 31.691 33.295 22.261 C 33.295 22.261 29.761 2.631 0 0" style="fill: rgb(0, 0, 0); fill-opacity: 1;"/>
    </g>
  </g>
  <g style="clip-path: url(#clippath4);" transform="matrix(0, 1, 1, 0, -290.414459, -242.261856)">
    <g transform="translate(356.5205 352.1357)">
      <path d="M 0 0 L 6.907 0 L 11.404 8.005 L 8.883 0 L 11.404 -0.548 C 11.404 -0.548 27.634 6.472 29.169 14.476 C 29.169 14.476 30.266 17.546 28.183 19.52 C 26.1 21.494 19.19 30.047 16.668 31.802 C 16.668 31.802 13.927 32.897 10.966 32.35 C 10.966 32.35 4.825 9.102 0 0" style="fill: rgb(255, 255, 255); fill-opacity: 1;"/>
    </g>
  </g>
  <g style="clip-path: url(#clippath4);" transform="matrix(0, 1, 1, 0, -290.414459, -242.261856)">
    <g transform="translate(326.9502 400.8965)">
      <path d="M 0 0 C 0 0 -22.74 -15.171 -14.698 -36.81 C -14.698 -36.81 -18.116 -14.738 4.107 -1.725" style="fill: rgb(52, 173, 167); fill-opacity: 1;"/>
    </g>
  </g>
  <g style="clip-path: url(#clippath8);" transform="matrix(0, 1, 1, 0, -290.414459, -242.261856)">
    <g transform="translate(341.625 291.3857)">
      <path d="M 0 0 C 0 0 -16.065 11.961 -4.113 37.415 C -4.113 37.415 55.543 32.493 55.25 71.936 C 55.25 71.936 56.311 95.656 36.388 110.315 C 36.388 110.315 37.304 125.889 51.999 123.401 C 51.999 123.401 69.286 111.378 73.051 90.357 C 73.051 90.357 74.982 64.351 73.369 61.7 C 73.369 61.7 74.013 35.237 65.301 25.442 C 65.301 25.442 32.739 7.164 0 0" style="fill: rgb(81, 81, 81); fill-opacity: 1;"/>
    </g>
  </g>
  <g style="clip-path: url(#clippath8);" transform="matrix(0, 1, 1, 0, -290.414459, -242.261856)">
    <g transform="translate(447.2568 327.7607)">
      <path d="M 0 0 C 0 0 -18.252 6.599 -23.297 25.46 C -23.297 25.46 33.212 26.96 41.695 59.771 C 41.695 59.771 52.178 59.218 46.425 64.351 C 46.425 64.351 53.312 59.987 52.692 65.173 C 52.692 65.173 54.284 56.964 42.826 44.004 C 42.826 44.004 32.776 27.373 22.102 25.618 C 22.102 25.618 8.285 17.795 -14.598 20.94 C -14.598 20.94 -9.264 5.44 0 0" style="fill: rgb(81, 81, 81); fill-opacity: 1;"/>
    </g>
  </g>
  <g style="clip-path: url(#clippath8);" transform="matrix(0, 1, 1, 0, -290.414459, -242.261856)">
    <g transform="translate(480.5449 347.9697)">
      <path d="M 0 0 C 0 0 10.96 2.755 14.527 9.656 C 14.527 9.656 14.052 12.405 4.832 17.224 C 4.832 17.224 0 10.052 -11.187 5.409" style="fill: rgb(81, 81, 81); fill-opacity: 1;"/>
    </g>
  </g>
  <g style="clip-path: url(#clippath8);" transform="matrix(0, 1, 1, 0, -290.414459, -242.261856)">
    <g transform="translate(439.2559 392.1768)">
      <path d="M 0 0 L -16.588 -6.67 C -16.588 -6.67 -1.885 17.159 11.04 18.643 C 11.04 18.643 14.824 18.298 13.325 13.583 C 11.828 8.866 12.704 13.691 12.704 13.691 C 12.704 13.691 9.194 12.099 9.341 11.141 C 9.341 11.141 0.895 2.683 0 0" style="fill: rgb(81, 81, 81); fill-opacity: 1;"/>
    </g>
  </g>
  <g style="clip-path: url(#clippath8);" transform="matrix(0, 1, 1, 0, -290.414459, -242.261856)">
    <g transform="translate(339.3799 332.916)">
      <path d="M 0 0 C 0 0 -30.487 17.496 -21.494 45.318 C -21.494 45.318 -20.41 64.329 11.987 73.811 C 11.987 73.811 -23.193 69.161 -27.097 38.306 C -27.097 38.306 -27.241 31.528 -27.128 31.171 C -27.014 30.815 -22.514 7.171 0 0" style="fill: rgb(81, 81, 81); fill-opacity: 1;"/>
    </g>
  </g>
  <g style="clip-path: url(#clippath8);" transform="matrix(0, 1, 1, 0, -290.414459, -242.261856)">
    <g transform="translate(248.7964 336.2441)">
      <path d="M 0 0 C 0 0 11.482 7.157 2.709 17.994 C 2.709 17.994 9.045 18.608 11.994 12.722 C 11.994 12.722 10.166 10.262 11.994 9.531 L 36.686 13.239 L 36.686 8.89 L 13.09 6.754 C 13.09 6.754 13.958 -5.878 0 0" style="fill: rgb(81, 81, 81); fill-opacity: 1;"/>
    </g>
  </g>
  <g style="clip-path: url(#clippath9);" transform="matrix(0, 1, 1, 0, -290.414459, -242.261856)">
    <g transform="translate(296.2065 373.7734)">
      <path d="M 0 0 C 3.45 -1.623 9.145 3.224 12.718 10.821 C 16.293 18.419 16.394 25.897 12.946 27.519 C 9.497 29.142 3.803 24.296 0.229 16.696 C -3.346 9.099 -3.449 1.621 0 0" style="fill: rgb(255, 255, 255); fill-opacity: 1;"/>
    </g>
  </g>
  <g style="clip-path: url(#clippath9);" transform="matrix(0, 1, 1, 0, -290.414459, -242.261856)">
    <g transform="translate(401.6563 334.6963)">
      <path d="M 0 0 C -1.128 0.737 -4.073 -1.77 -6.572 -5.601 C -9.07 -9.43 -10.182 -13.136 -9.051 -13.872 C -7.923 -14.608 -4.978 -12.1 -2.479 -8.271 C 0.02 -4.44 1.133 -0.736 0 0" style="fill: rgb(255, 255, 255); fill-opacity: 1;"/>
    </g>
  </g>
  <g style="clip-path: url(#clippath9);" transform="matrix(0, 1, 1, 0, -290.414459, -242.261856)">
    <g transform="translate(250.3179 346.2266)">
      <path d="M 0 0 C 1.25 1.039 1.583 2.701 0.741 3.715 C -0.099 4.728 -1.795 4.707 -3.044 3.671 C -4.296 2.633 -4.627 0.971 -3.786 -0.043 C -2.945 -1.056 -1.25 -1.036 0 0" style="fill: rgb(255, 255, 255); fill-opacity: 1;"/>
    </g>
  </g>
</svg>