<svg xmlns="http://www.w3.org/2000/svg" viewBox="0 0 183.9 217.2"><defs><clipPath id="clippath5"><path d="M 0 841.89 L 595.28 841.89 L 595.28 0 L 0 0 Z" style="fill:none;clip-rule:nonzero"/></clipPath><clipPath id="clippath8" style="clip-path:url(#clippath7)"><rect width="324.043" height="777.919" x="175.981" y="35.141" style="clip-rule:nonzero"/></clipPath><clipPath id="clippath7"><path d="M 0 841.89 L 595.28 841.89 L 595.28 0 L 0 0 Z" style="fill:none;clip-rule:nonzero"/></clipPath><clipPath id="clippath9"><path d="M 0 841.89 L 595.28 841.89 L 595.28 0 L 0 0 Z" style="fill:none;clip-rule:nonzero"/></clipPath></defs><g style="clip-path:url(#clippath5)" transform="matrix(0, 1, 1, 0, -467.761597, -121.039795)"><g><path d="M 0 0 C 6.155 0.165 12.115 -35.766 13.309 -80.246 C 14.501 -124.736 10.473 -160.93 4.317 -161.094 C -1.84 -161.259 -7.797 -125.334 -8.989 -80.846 C -10.181 -36.364 -6.156 -0.165 0 0" transform="translate(324.459 651.6807)" style="fill:#c1c1c1;fill-opacity:1"/></g></g><g style="clip-path:url(#clippath5)" transform="matrix(0, 1, 1, 0, -467.761597, -121.039795)"><g><path d="M 0 0 C 0 0 2.628 15.938 4.164 24.417 C 4.164 24.417 13.158 18.861 14.474 16.961 C 14.474 16.961 20.03 21.493 21.784 14.475 C 23.539 7.457 27.632 -13.891 6.724 0 Z" transform="translate(314.9619 515.5264)" style="fill:#333;fill-opacity:1"/></g></g><g style="clip-path:url(#clippath5)" transform="matrix(0, 1, 1, 0, -467.761597, -121.039795)"><g><path d="M 0 0 C 0 0 -9.066 11.548 -4.973 19.152 L 2.34 20.761 C 2.34 20.761 6.432 25.292 9.503 24.854 C 9.503 24.854 16.005 16.52 11.657 3.655 C 11.657 3.655 9.503 2.192 4.971 3.07 C 4.971 3.07 3.561 1.316 0 0" transform="translate(314.9619 600.9146)" style="fill:#333;fill-opacity:1"/></g></g><g style="clip-path:url(#clippath5)" transform="matrix(0, 1, 1, 0, -467.761597, -121.039795)"><g><path d="M 0 0 C 0 0 -39.038 13.816 -46.056 62.505 C -53.074 111.193 -14.255 131.151 -11.733 132.028 C -9.211 132.905 45.619 129.616 41.231 102.859 C 36.845 76.103 29.389 -12.721 0 0" transform="translate(207.0571 496.6655)" style="fill:#333;fill-opacity:1"/></g></g><g style="clip-path:url(#clippath5)" transform="matrix(0, 1, 1, 0, -467.761597, -121.039795)"><g><path d="M 0 0 L -19.517 5.834 L -22.734 2.918 C -22.734 2.918 -26.682 1.887 -26.828 5.834 C -26.828 5.834 -37.502 4.517 -38.671 8.611 C -38.671 8.611 -39.256 11.245 -30.775 10.513 C -30.775 10.513 -40.719 13.437 -37.355 16.945 C -37.355 16.945 -35.308 18.408 -27.851 15.338 C -27.851 15.338 -22.587 27.472 -13.522 16.361 C -13.522 16.361 7.824 15.701 10.456 13.691 C 13.088 11.682 4.845 -1.449 0 0" transform="translate(193.5313 627.832)" style="fill:#333;fill-opacity:1"/></g></g><g style="clip-path:url(#clippath5)" transform="matrix(0, 1, 1, 0, -467.761597, -121.039795)"><g><path d="M 0 0 C 0 0 -6.434 -0.731 -15.646 1.754 C -15.646 1.754 -26.172 -18.129 -36.7 -17.106 C -36.7 -17.106 -66.819 -21.493 -67.404 -21.054 C -67.404 -21.054 -60.678 -5.995 -64.625 64.188 C -64.625 64.188 -53.952 67.99 -56.291 83.487 C -58.631 98.985 -67.404 95.331 -67.404 95.331 C -67.404 95.331 -73.691 122.138 -91.236 123.309 C -91.236 123.309 -59.436 130.712 -23.688 103.518 L -4.973 104.54 C -4.973 104.54 -9.267 99.241 0 85.388 C 0 85.388 -8.444 80.16 -15.134 80.928 C -15.134 80.928 -6.69 65.466 -9.321 35.311 L 4.164 24.417" transform="translate(314.9619 515.5264)" style="fill:#48d3cf;fill-opacity:1"/></g></g><g style="clip-path:url(#clippath5)" transform="matrix(0, 1, 1, 0, -467.761597, -121.039795)"><g><path d="M 0 0 C 0 0 -17.325 1.974 -19.299 18.094 C -19.299 18.094 -7.93 14.916 -14.73 100.668 C -14.73 100.668 -5.044 105.419 -6.25 121.868 C -7.457 138.317 -20.594 137.437 -20.375 136.998 C -20.155 136.559 -22.918 160.321 -41.999 161.198 C -41.999 161.198 -45.179 161.417 -48.907 161.198 C -48.907 161.198 -56.035 164.158 -62.833 163.939 C -62.833 163.939 -70.949 159.882 -71.497 151.109 C -71.497 151.109 -55.048 149.903 -49.565 131.262 C -49.565 131.262 -42.876 132.139 -39.696 127.313 C -39.696 127.313 -24.087 130.202 -23.795 119.09 C -23.522 108.689 -28.839 107.465 -36.407 108.672 C -36.407 108.672 -38.599 102.092 -41.779 100.228 C -41.779 100.228 -34.213 12.83 -59.764 19.081 C -59.764 19.081 -53.403 13.05 -43.535 11.624 C -43.535 11.624 -25.916 -27.56 0 0" transform="translate(266.8208 477.5845)" style="fill:#eda024;fill-opacity:1"/></g></g><g style="clip-path:url(#clippath5)" transform="matrix(0, 1, 1, 0, -467.761597, -121.039795)"><g><path d="M 0 0 C 0 0 6.178 8.7 6.617 11.185 C 6.617 11.185 12.904 1.755 14.22 5.593 C 14.22 5.593 15.974 8.701 10.857 15.719 C 10.857 15.719 17.145 13.526 16.852 18.936 C 16.852 18.936 15.974 21.713 10.857 21.713 C 10.857 21.713 -10.125 33.043 -19.299 18.094 C -19.299 18.094 -21.676 2.266 0 0" transform="translate(266.8208 477.5845)" style="fill:#333;fill-opacity:1"/></g></g><g style="clip-path:url(#clippath5)" transform="matrix(0, 1, 1, 0, -467.761597, -121.039795)"><g><path d="M 0 0 C 2.463 0 4.46 -1.899 4.46 -4.241 C 4.46 -6.583 2.463 -8.482 0 -8.482 C -2.463 -8.482 -4.459 -6.583 -4.459 -4.241 C -4.459 -1.899 -2.463 0 0 0" transform="translate(232.7178 599.7441)" style="fill:#48d3cf;fill-opacity:1"/></g></g><g style="clip-path:url(#clippath5)" transform="matrix(0, 1, 1, 0, -467.761597, -121.039795)"><g><path d="M 0 0 L -14.255 0.803 C -14.255 0.803 -19.519 -1.754 -19.738 -1.754 C -19.958 -1.754 -23.76 -0.586 -22.736 3.435 C -22.736 3.435 -9.138 8.261 -8.334 11.843 C -8.334 11.843 -7.092 18.425 -1.389 12.794 C 4.312 7.164 3.965 0.363 0 0.293" transform="translate(178.4736 522.0342)" style="fill:#eda024;fill-opacity:1"/></g></g><g style="clip-path:url(#clippath5)" transform="matrix(0, 1, 1, 0, -467.761597, -121.039795)"><g><path d="M 0 0 C 0 0 -5.776 3.947 -9.066 4.167 L -23.541 5.118 C -23.541 5.118 -25.586 6.651 -21.932 10.308 C -21.932 10.308 -6.726 9.358 -3.875 11.332 C -3.875 11.332 2.412 19.447 6.36 10.675 C 10.307 1.901 2.047 0.51 0 0" transform="translate(163.999 572.4033)" style="fill:#eda024;fill-opacity:1"/></g></g><g style="clip-path:url(#clippath5)" transform="matrix(0, 1, 1, 0, -467.761597, -121.039795)"><g><path d="M 0 0 C 2.147 0.95 4.927 -0.628 6.209 -3.526 C 7.492 -6.421 6.792 -9.542 4.645 -10.493 C 2.499 -11.442 -0.283 -9.866 -1.565 -6.969 C -2.847 -4.073 -2.145 -0.951 0 0" transform="translate(141.6069 521.8062)" style="fill:#eda024;fill-opacity:1"/></g></g><g style="clip-path:url(#clippath5)" transform="matrix(0, 1, 1, 0, -467.761597, -121.039795)"><g><path d="M 0 0 C -0.325 2.603 2.257 5.068 5.769 5.505 C 9.277 5.945 12.389 4.192 12.716 1.592 C 13.039 -1.009 10.458 -3.478 6.947 -3.917 C 3.438 -4.354 0.326 -2.599 0 0" transform="translate(121.0674 578.2954)" style="fill:#eda024;fill-opacity:1"/></g></g><g style="clip-path:url(#clippath5)" transform="matrix(0, 1, 1, 0, -467.761597, -121.039795)"><g><path d="M 0 0 C 0 0 -15.9 -0.523 -22.699 33.36 C -22.699 33.36 -27.086 61.871 -22.699 71.85 C -22.699 71.85 -13.269 80.623 -3.948 68.451 C -3.948 68.451 1.425 41.16 3.947 6.61 C 3.947 6.61 4.825 1.621 0 0" transform="translate(205.5225 522.082)" style="fill:#ffe9ca;fill-opacity:1"/></g></g><g style="clip-path:url(#clippath5)" transform="matrix(0, 1, 1, 0, -467.761597, -121.039795)"><g><path d="M 0 0 C 1.278 -0.38 1.842 -2.265 1.264 -4.21 C 0.685 -6.152 -0.819 -7.422 -2.096 -7.042 C -3.375 -6.662 -3.939 -4.777 -3.36 -2.832 C -2.781 -0.89 -1.278 0.38 0 0" transform="translate(198.0171 538.5117)" style="fill:#000;fill-opacity:1"/></g></g><g style="clip-path:url(#clippath5)" transform="matrix(0, 1, 1, 0, -467.761597, -121.039795)"><g><path d="M 0 0 C 1.954 -0.672 3.21 -2.166 2.806 -3.34 C 2.402 -4.515 0.493 -4.921 -1.461 -4.25 C -3.416 -3.578 -4.67 -2.083 -4.267 -0.909 C -3.864 0.266 -1.954 0.672 0 0" transform="translate(190.5254 590.9375)" style="fill:#000;fill-opacity:1"/></g></g><g style="clip-path:url(#clippath5)" transform="matrix(0, 1, 1, 0, -467.761597, -121.039795)"><g><path d="M 0 0 L 0 1.315 L 3.141 1.1 C 3.141 1.1 3.709 9.941 -0.678 11.038 C -0.678 11.038 -1.701 10.963 -1.847 10.16 L -3.309 10.233 C -3.309 10.233 -2.759 14.253 1.023 12.134 C 1.023 12.134 6.779 7.311 4.147 -0.439 C 4.147 -0.439 1.847 -1.097 0 0" transform="translate(193.4067 553.0317)" style="fill:#000;fill-opacity:1"/></g></g><g style="clip-path:url(#clippath8)" transform="matrix(0, 1, 1, 0, -467.761597, -121.039795)"><g><path d="M 0 0 C 0 0 20.061 7.063 29.164 25.517 C 29.164 25.517 36.2 12.477 37.489 13.365 L 30.809 19.844 C 30.809 19.844 20.291 -6.028 0 0" transform="translate(242.2622 468.9253)" style="fill:#515151;fill-opacity:1"/></g></g><g style="clip-path:url(#clippath8)" transform="matrix(0, 1, 1, 0, -467.761597, -121.039795)"><g><path d="M 0 0 C 0 0 32.788 90.252 -6.852 133.877 C -6.852 133.877 11.626 129.91 30.268 115.655 C 30.268 115.655 29.61 107.759 36.409 101.4 C 36.409 101.4 55.266 101.181 58.119 104.689 C 58.119 104.689 66.449 101.838 67.11 112.366 C 67.11 112.366 67.317 101.814 65.612 101.181 C 63.907 100.546 61.41 100.303 58.998 100.742 C 58.998 100.742 46.937 91.75 38.602 93.066 C 38.602 93.066 47.155 78.371 44.634 47.448 C 44.634 47.448 35.971 32.973 40.357 24.639 L 62.362 18.952 L 63.369 18.693 C 63.369 18.693 75.273 7.422 76 22.048 C 76 22.048 80.37 7.326 70.78 7.539 C 70.78 7.539 62.946 9.506 60.973 12.576 C 60.973 12.576 45.84 10.822 37.943 14.331 C 37.943 14.331 29.312 -3.603 20.279 -4.716 C 20.279 -4.716 16.895 -3.033 16.451 -4.091 C 16.451 -4.091 6.448 1.429 0 0" transform="translate(261.0068 503.3887)" style="fill:#515151;fill-opacity:1"/></g></g><g style="clip-path:url(#clippath8)" transform="matrix(0, 1, 1, 0, -467.761597, -121.039795)"><g><path d="M 0 0 C 0 0 -9.005 26.296 -6.519 51.374 C -6.519 51.374 -8.002 62.056 5.459 60.992 C 5.459 60.992 1.091 64.462 -6.953 59.343 C -6.953 59.343 -9.712 51.783 -8.762 39.604 C -8.762 39.604 -8.979 16.833 0 0" transform="translate(189.7441 534.9907)" style="fill:#515151;fill-opacity:1"/></g></g><g style="clip-path:url(#clippath8)" transform="matrix(0, 1, 1, 0, -467.761597, -121.039795)"><g><path d="M 0 0 C 0 0 -8.588 -5.737 -10.344 -11.585 C -10.344 -11.585 -16.632 -9.249 -14.804 -3.399 C -14.804 -3.399 -7.787 2.229 0 0" transform="translate(247.5215 495.6782)" style="fill:#515151;fill-opacity:1"/></g></g><g style="clip-path:url(#clippath9)" transform="matrix(0, 1, 1, 0, -467.761597, -121.039795)"><g><path d="M 0 0 C 1.445 -0.817 3.73 0.492 5.103 2.919 C 6.475 5.347 6.416 7.981 4.97 8.797 C 3.523 9.614 1.24 8.306 -0.132 5.877 C -1.504 3.449 -1.446 0.817 0 0" transform="translate(168.9282 592.5923)" style="fill:#fff;fill-opacity:1"/></g></g></svg>