<svg xmlns="http://www.w3.org/2000/svg" viewBox="0 0 122.3 201.5"><defs><clipPath id="clippath6"><path d="M 0 841.89 L 595.28 841.89 L 595.28 0 L 0 0 Z" style="fill:none;clip-rule:nonzero"/></clipPath><clipPath id="clippath8" style="clip-path:url(#clippath7)"><rect width="324.043" height="777.919" x="175.981" y="35.141" style="clip-rule:nonzero"/></clipPath><clipPath id="clippath7"><path d="M 0 841.89 L 595.28 841.89 L 595.28 0 L 0 0 Z" style="fill:none;clip-rule:nonzero"/></clipPath><clipPath id="clippath9"><path d="M 0 841.89 L 595.28 841.89 L 595.28 0 L 0 0 Z" style="fill:none;clip-rule:nonzero"/></clipPath></defs><g style="clip-path:url(#clippath6)" transform="matrix(0, 1, 1, 0, -694.521606, -276.207855)"><g><path d="M 0 0 C 4.003 0.106 7.842 -21.632 8.569 -48.558 C 9.3 -75.489 6.642 -97.404 2.64 -97.512 C -1.365 -97.62 -5.201 -75.882 -5.93 -48.952 C -6.658 -22.026 -4.001 -0.108 0 0" transform="translate(469.0186 803.5879)" style="fill:#c1c1c1;fill-opacity:1"/></g></g><g style="clip-path:url(#clippath6)" transform="matrix(0, 1, 1, 0, -694.521606, -276.207855)"><g><path d="M 0 0 C 0 0 -47.381 8.275 -56.269 48.574 C -63.738 82.444 -61.156 109.267 -21.593 120.283 C 17.971 131.302 0 0 0 0" transform="translate(335.7988 695.3926)" style="fill:#48d3cf;fill-opacity:1"/></g></g><g style="clip-path:url(#clippath6)" transform="matrix(0, 1, 1, 0, -694.521606, -276.207855)"><g><path d="M 0 0 C 0 0 -9.602 11.115 -6.614 24.626 C -3.632 38.137 0.815 48.633 2.462 48.945 C 4.11 49.257 -2.394 59.025 -2.394 59.025 L -5.636 65.414 C -5.636 65.414 -39.466 55.731 -42.455 52.359 C -42.455 52.359 -46.97 52.317 -51.075 52.383 C -53.257 52.421 -55.324 52.489 -56.538 52.611 L -56.306 54.892 C -56.306 54.892 -40.353 47.004 -48.589 67.238 C -48.589 67.238 -64.413 90.884 -74.563 51.647 C -74.563 51.647 -100.407 91.005 -136.795 84.333 C -136.795 84.333 -163.576 58.612 -115.696 -36.622 C -115.696 -36.622 -81.081 -44.54 -67.316 -0.084 C -67.316 -0.084 -60.147 -33.73 -42.848 -22.552 C -42.848 -22.552 -39.886 -6.391 -47.462 -4.3 C -55.038 -2.211 -48.146 -3.79 -48.146 -3.79 L -50.69 -5.703 L -51.221 2.105 C -51.221 2.105 -44.811 -1.335 -40.17 -1.953 C -40.17 -1.953 -14.708 -17.784 -4.994 -19.85" transform="translate(456.1719 731.6899)" style="fill:#eda024;fill-opacity:1"/></g></g><g style="clip-path:url(#clippath6)" transform="matrix(0, 1, 1, 0, -694.521606, -276.207855)"><g><path d="M 0 0 C 0 0 2.761 1.202 1.745 4.385 C 1.745 4.385 -7.24 14.506 -13.375 22.739 C -13.375 22.739 -23.826 22.105 -27.805 20.091 C -27.805 20.091 -33.564 19.471 -18.275 2.865 C -18.275 2.865 -4.597 -0.437 0 0" transform="translate(469.6377 709.2988)" style="fill:#333;fill-opacity:1"/></g></g><g style="clip-path:url(#clippath6)" transform="matrix(0, 1, 1, 0, -694.521606, -276.207855)"><g><path d="M 0 0 C 0 0 -11.221 1.304 -14.08 1.36 C -16.938 1.416 -16.307 4.549 -15.623 5.917 C -14.94 7.282 -13.275 11.968 -9.283 15.658 C -5.292 19.35 9.288 18.603 10.229 18.071 C 10.229 18.071 11.553 16.953 10.51 12.978 C 9.464 9 0.271 0.524 0 0" transform="translate(458.4932 780.9932)" style="fill:#333;fill-opacity:1"/></g></g><g style="clip-path:url(#clippath6)" transform="matrix(0, 1, 1, 0, -694.521606, -276.207855)"><g><path d="M 0 0 C 0 0 4.226 2.68 4.189 12.963 C 4.189 12.963 10.561 8.97 9.721 12.431 C 9.721 12.431 7.681 21.735 -1.619 22.779 C -1.619 22.779 -4 19.79 -5.389 18.736 C -5.389 18.736 -9.472 8.41 -8.466 3.61 C -8.466 3.61 -1.603 0.155 0 0" transform="translate(413.5234 709.2817)" style="fill:#333;fill-opacity:1"/></g></g><g style="clip-path:url(#clippath6)" transform="matrix(0, 1, 1, 0, -694.521606, -276.207855)"><g><path d="M 0 0 L -6.551 11.182 C -6.551 11.182 -4.938 14.365 1.519 15.744 C 1.519 15.744 5.222 12.698 5.163 7.446 C 5.163 7.446 6.64 12.407 6.462 13.599 C 6.462 13.599 10.143 15.409 10.599 7.765 C 10.599 7.765 9.632 -11.189 0 0" transform="translate(404.2568 785.2646)" style="fill:#333;fill-opacity:1"/></g></g><g style="clip-path:url(#clippath6)" transform="matrix(0, 1, 1, 0, -694.521606, -276.207855)"><g><path d="M 0 0 L -1.323 3.257 L 8.479 7.21 C 8.479 7.21 4.729 1.611 0 0" transform="translate(326.2881 729.2173)" style="fill:#d68a1a;fill-opacity:1"/></g></g><g style="clip-path:url(#clippath6)" transform="matrix(0, 1, 1, 0, -694.521606, -276.207855)"><g><path d="M 0 0 C 0 0 -44.895 91.813 -19.922 121.151 C -19.922 121.151 -25.139 121.634 -27.29 120.32 C -27.29 120.32 -47.898 86.658 -4.677 0.325 Z" transform="translate(340.4756 695.0679)" style="fill:#333;fill-opacity:1"/></g></g><g style="clip-path:url(#clippath6)" transform="matrix(0, 1, 1, 0, -694.521606, -276.207855)"><g><path d="M 0 0 L 0.899 -2.43 C 0.899 -2.43 -24.717 -3.483 -21.29 29.786" transform="translate(320.0654 731.5986)" style="fill:#34ada7;fill-opacity:1"/></g></g><g style="clip-path:url(#clippath6)" transform="matrix(0, 1, 1, 0, -694.521606, -276.207855)"><g><path d="M 0 0 C 1.688 -0.163 2.93 -1.597 2.776 -3.202 C 2.621 -4.809 1.126 -5.979 -0.562 -5.817 C -2.249 -5.654 -3.491 -4.219 -3.338 -2.613 C -3.182 -1.006 -1.688 0.163 0 0" transform="translate(352.2881 728.4873)" style="fill:#48d3cf;fill-opacity:1"/></g></g><g style="clip-path:url(#clippath6)" transform="matrix(0, 1, 1, 0, -694.521606, -276.207855)"><g><path d="M 0 0 C 1.686 -0.162 2.93 -1.595 2.774 -3.202 C 2.62 -4.809 1.126 -5.98 -0.563 -5.817 C -2.251 -5.654 -3.494 -4.218 -3.338 -2.611 C -3.184 -1.006 -1.688 0.165 0 0" transform="translate(352.124 764.4175)" style="fill:#48d3cf;fill-opacity:1"/></g></g><g style="clip-path:url(#clippath6)" transform="matrix(0, 1, 1, 0, -694.521606, -276.207855)"><g><path d="M 0 0 C 1.688 -0.165 2.929 -1.597 2.773 -3.204 C 2.618 -4.809 1.124 -5.981 -0.563 -5.818 C -2.251 -5.656 -3.493 -4.22 -3.338 -2.612 C -3.183 -1.007 -1.688 0.163 0 0" transform="translate(333.5313 793.9771)" style="fill:#48d3cf;fill-opacity:1"/></g></g><g style="clip-path:url(#clippath6)" transform="matrix(0, 1, 1, 0, -694.521606, -276.207855)"><g><path d="M 0 0 C 0 0 -32.828 -20.517 -35.975 24.477 C -35.975 24.477 -36.372 47.727 -8.489 41.361 C -8.489 41.361 13.21 25.752 0 0" transform="translate(334.7676 736.4277)" style="fill:#ffe9ca;fill-opacity:1"/></g></g><g style="clip-path:url(#clippath6)" transform="matrix(0, 1, 1, 0, -694.521606, -276.207855)"><g><path d="M 0 0 C 1.167 -0.394 1.938 -1.231 1.723 -1.867 C 1.506 -2.507 0.387 -2.707 -0.781 -2.313 C -1.946 -1.918 -2.72 -1.083 -2.503 -0.443 C -2.286 0.195 -1.168 0.395 0 0" transform="translate(308.3076 745.0776)" style="fill:#000;fill-opacity:1"/></g></g><g style="clip-path:url(#clippath6)" transform="matrix(0, 1, 1, 0, -694.521606, -276.207855)"><g><path d="M 0 0 C 1.09 0.572 2.229 0.554 2.54 -0.042 C 2.854 -0.639 2.226 -1.59 1.134 -2.161 C 0.045 -2.733 -1.093 -2.714 -1.405 -2.116 C -1.72 -1.521 -1.091 -0.573 0 0" transform="translate(304.8516 765.146)" style="fill:#000;fill-opacity:1"/></g></g><g style="clip-path:url(#clippath6)" transform="matrix(0, 1, 1, 0, -694.521606, -276.207855)"><g><path d="M 0 0 C 0 0 7.569 -3.006 6.798 9.552 C 6.027 22.111 1.451 34.306 -4.176 30.663 C -4.176 30.663 4.532 34.373 5.988 9.52 C 5.988 9.52 7.297 -0.485 0 0" transform="translate(314.0244 739.9004)" style="fill:#000;fill-opacity:1"/></g></g><g style="clip-path:url(#clippath6)" transform="matrix(0, 1, 1, 0, -694.521606, -276.207855)"><g><path d="M 0 0 C 0 0 1.992 1.24 -7.548 8.551 C -7.548 8.551 -6.701 12.766 -2.063 16.283 C -2.063 16.283 -0.156 18.963 -3.353 19.493 C -3.353 19.493 -18.44 18.967 -24.422 12.935 C -24.422 12.935 -26.986 9.175 -15.041 3.966 C -3.095 -1.242 0.184 -2.661 0 0" transform="translate(415.5254 745.5928)" style="fill:#48d3cf;fill-opacity:1"/></g></g><g style="clip-path:url(#clippath8)" transform="matrix(0, 1, 1, 0, -694.521606, -276.207855)"><g><path d="M 0 0 C 0 0 -47.543 28.668 -27.596 107.629 C -27.596 107.629 -12.668 103.736 7.825 77.907 C 7.825 77.907 23.172 57.297 15.072 26.175 C 15.072 26.175 5.604 1.729 0 0" transform="translate(373.7832 705.4302)" style="fill:#515151;fill-opacity:1"/></g></g><g style="clip-path:url(#clippath8)" transform="matrix(0, 1, 1, 0, -694.521606, -276.207855)"><g><path d="M 0 0 C 0 0 -31.549 21.64 -29.57 38.893 C -27.588 56.145 -21.259 78.144 -1.616 87.468 C -1.616 87.468 -0.321 85.97 -1.639 81.583 L -11.726 69.396 C -11.726 69.396 -31.465 39.694 -14.357 20.176 L 1.045 2.087 C 1.045 2.087 1.044 -0.74 0 0" transform="translate(470.3379 711.5967)" style="fill:#515151;fill-opacity:1"/></g></g><g style="clip-path:url(#clippath8)" transform="matrix(0, 1, 1, 0, -694.521606, -276.207855)"><g><path d="M 0 0 C 0.344 -0.58 -1.847 39.846 -1.847 39.846 C -1.847 39.846 -16.668 28.143 0 0" transform="translate(444.1367 732.061)" style="fill:#515151;fill-opacity:1"/></g></g><g style="clip-path:url(#clippath8)" transform="matrix(0, 1, 1, 0, -694.521606, -276.207855)"><g><path d="M 0 0 C 0 0 -30.239 20.734 -8.457 46.003 C -8.457 46.003 -17.045 44.701 -20.063 30.792 C -20.063 30.792 -19.547 12.239 -11.927 5.331 C -11.927 5.331 -8.831 0.444 0 0" transform="translate(318.5225 731.7769)" style="fill:#515151;fill-opacity:1"/></g></g><g style="clip-path:url(#clippath9)" transform="matrix(0, 1, 1, 0, -694.521606, -276.207855)"><g><path d="M 0 0 C 3.904 -2.204 10.074 1.33 13.78 7.887 C 17.485 14.447 17.326 21.556 13.421 23.761 C 9.518 25.967 3.349 22.434 -0.357 15.873 C -4.063 9.314 -3.903 2.207 0 0" transform="translate(284.7397 768.9531)" style="fill:#fff;fill-opacity:1"/></g></g><g style="clip-path:url(#clippath9)" transform="matrix(0, 1, 1, 0, -694.521606, -276.207855)"><g><path d="M 0 0 C 1.515 -0.854 3.904 0.515 5.34 3.055 C 6.775 5.597 6.713 8.352 5.201 9.205 C 3.688 10.061 1.3 8.691 -0.137 6.15 C -1.571 3.609 -1.51 0.856 0 0" transform="translate(370.0693 708.3286)" style="fill:#fff;fill-opacity:1"/></g></g></svg>